<?xml version="1.0"?>
<svg width="1024" height="1024" xmlns="http://www.w3.org/2000/svg" xmlns:svg="http://www.w3.org/2000/svg">
 <!-- Created with SVG-edit - http://svg-edit.googlecode.com/ -->
 <title>Vineyard</title>
 <g>
  <title>Background</title>
  <rect ry="64" rx="64" id="svg_3" height="1004" width="1004" y="10" x="10" stroke-width="20" stroke="#784888" fill="#ffffff"/>
 </g>
 <g>
  <title>Layer 1</title>
  <g id="svg_5">
   <rect ry="15" rx="15" id="svg_1" height="100" width="120" y="618.22223" x="556.96296" stroke-width="5" stroke="#a676b6" fill="#784888"/>
   <ellipse ry="30" rx="40" id="svg_4" cy="578.22223" cx="618.96296" stroke-linecap="null" stroke-linejoin="null" stroke-dasharray="null" stroke-width="5" stroke="#a676b6" fill="#784888"/>
  </g>
  <g id="svg_6">
   <rect stroke="#a676b6" id="svg_7" ry="15" rx="15" height="131.60493" width="157.92592" y="613.47529" x="714.42591" stroke-width="5" fill="#784888"/>
   <ellipse stroke="#a676b6" id="svg_8" ry="39.48148" rx="52.64197" cy="560.83331" cx="796.02097" stroke-linecap="null" stroke-linejoin="null" stroke-dasharray="null" stroke-width="5" fill="#784888"/>
  </g>
  <g id="svg_9">
   <rect stroke="#a676b6" id="svg_10" ry="15" rx="15" height="84.19753" width="101.03704" y="827.98457" x="857.73148" stroke-width="5" fill="#784888"/>
   <ellipse stroke="#a676b6" id="svg_11" ry="25.25926" rx="33.67901" cy="794.30555" cx="909.93394" stroke-linecap="null" stroke-linejoin="null" stroke-dasharray="null" stroke-width="5" fill="#784888"/>
  </g>
  <g id="svg_12">
   <rect stroke="#a676b6" id="svg_13" ry="15" rx="15" height="101.9753" width="122.37036" y="881.37042" x="695.82405" stroke-width="5" fill="#784888"/>
   <ellipse stroke="#a676b6" id="svg_14" ry="30.59259" rx="40.79012" cy="840.5803" cx="759.04873" stroke-linecap="null" stroke-linejoin="null" stroke-dasharray="null" stroke-width="5" fill="#784888"/>
  </g>
  <g id="svg_15">
   <rect id="svg_16" stroke="#a676b6" ry="15" rx="15" height="84.19753" width="101.03704" y="805.1667" x="544.36107" stroke-width="5" fill="#784888"/>
   <ellipse id="svg_17" stroke="#a676b6" ry="25.25926" rx="33.67901" cy="771.48768" cx="596.56354" stroke-linecap="null" stroke-linejoin="null" stroke-dasharray="null" stroke-width="5" fill="#784888"/>
  </g>
  <g id="svg_18">
   <rect id="svg_19" stroke="#a676b6" ry="15" rx="15" height="101.9753" width="122.37036" y="360.4074" x="621.48149" stroke-width="5" fill="#784888"/>
   <ellipse id="svg_20" stroke="#a676b6" ry="30.59259" rx="40.79012" cy="319.61728" cx="684.70617" stroke-linecap="null" stroke-linejoin="null" stroke-dasharray="null" stroke-width="5" fill="#784888"/>
  </g>
  <g id="svg_21">
   <rect stroke="#a676b6" id="svg_22" ry="15" rx="15" height="182.96296" width="219.55555" y="342.13582" x="354.81484" stroke-width="5" fill="#784888"/>
   <ellipse stroke="#a676b6" id="svg_23" ry="54.88889" rx="73.18518" cy="268.95064" cx="468.25187" stroke-linecap="null" stroke-linejoin="null" stroke-dasharray="null" stroke-width="5" fill="#784888"/>
  </g>
  <g id="svg_24">
   <rect id="svg_25" stroke="#a676b6" ry="15" rx="15" height="131.60493" width="157.92592" y="659.37039" x="331.11112" stroke-width="5" fill="#784888"/>
   <ellipse id="svg_26" stroke="#a676b6" ry="39.48148" rx="52.64197" cy="606.72842" cx="412.70618" stroke-linecap="null" stroke-linejoin="null" stroke-dasharray="null" stroke-width="5" fill="#784888"/>
  </g>
  <g id="svg_27">
   <rect id="svg_28" stroke="#a676b6" ry="15" rx="15" height="101.9753" width="122.37036" y="602.1852" x="166.37034" stroke-width="5" fill="#784888"/>
   <ellipse id="svg_29" stroke="#a676b6" ry="30.59259" rx="40.79012" cy="561.39508" cx="229.59503" stroke-linecap="null" stroke-linejoin="null" stroke-dasharray="null" stroke-width="5" fill="#784888"/>
  </g>
  <g id="svg_30">
   <rect id="svg_31" stroke="#a676b6" ry="15" rx="15" height="131.60493" width="157.92592" y="367.81486" x="143.85186" stroke-width="5" fill="#784888"/>
   <ellipse id="svg_32" stroke="#a676b6" ry="39.48148" rx="52.64197" cy="315.17289" cx="225.44692" stroke-linecap="null" stroke-linejoin="null" stroke-dasharray="null" stroke-width="5" fill="#784888"/>
  </g>
  <ellipse ry="2.37037" id="svg_36" cy="168.2963" cx="277.33333" stroke-linecap="null" stroke-linejoin="null" stroke-dasharray="null" stroke-width="5" stroke="#7ea049" fill="#7ea049"/>
  <ellipse id="svg_37" cy="168.2963" cx="284.44444" stroke-linecap="null" stroke-linejoin="null" stroke-dasharray="null" stroke-width="5" stroke="#7ea049" fill="#7ea049"/>
  <ellipse stroke="#7ea049" transform="rotate(25 281.927 146.938)" ry="92.35738" rx="51.51256" id="svg_33" cy="146.93803" cx="281.92746" stroke-linecap="null" stroke-linejoin="null" stroke-dasharray="null" stroke-width="10" fill="#50701f"/>
  <ellipse stroke="#7ea049" transform="rotate(35 170.667 139.852)" ry="65.5297" rx="141.99641" id="svg_35" cy="139.85188" cx="170.6667" stroke-linecap="null" stroke-linejoin="null" stroke-dasharray="null" stroke-width="5" fill="#7ea049"/>
 </g>
</svg>