<?xml version="1.0" encoding="UTF-8" standalone="no"?>
<!-- Created with Inkscape (http://www.inkscape.org/) -->

<svg
   xmlns:dc="http://purl.org/dc/elements/1.1/"
   xmlns:cc="http://creativecommons.org/ns#"
   xmlns:rdf="http://www.w3.org/1999/02/22-rdf-syntax-ns#"
   xmlns:svg="http://www.w3.org/2000/svg"
   xmlns="http://www.w3.org/2000/svg"
   xmlns:sodipodi="http://sodipodi.sourceforge.net/DTD/sodipodi-0.dtd"
   xmlns:inkscape="http://www.inkscape.org/namespaces/inkscape"
   width="436.7756"
   height="463.7702"
   id="svg2"
   version="1.1"
   inkscape:version="0.48.4 r9939"
   sodipodi:docname="Logo.svg">
  <defs
     id="defs4" />
  <sodipodi:namedview
     id="base"
     pagecolor="#ffffff"
     bordercolor="#666666"
     borderopacity="1.0"
     inkscape:pageopacity="0.0"
     inkscape:pageshadow="2"
     inkscape:zoom="0.5"
     inkscape:cx="322.24894"
     inkscape:cy="369.4581"
     inkscape:document-units="px"
     inkscape:current-layer="layer1"
     showgrid="false"
     inkscape:window-width="1024"
     inkscape:window-height="551"
     inkscape:window-x="0"
     inkscape:window-y="0"
     inkscape:window-maximized="1"
     fit-margin-top="0"
     fit-margin-left="0"
     fit-margin-right="0"
     fit-margin-bottom="0" />
  <metadata
     id="metadata7">
    <rdf:RDF>
      <cc:Work
         rdf:about="">
        <dc:format>image/svg+xml</dc:format>
        <dc:type
           rdf:resource="http://purl.org/dc/dcmitype/StillImage" />
        <dc:title></dc:title>
      </cc:Work>
    </rdf:RDF>
  </metadata>
  <g
     inkscape:label="Layer 1"
     inkscape:groupmode="layer"
     id="layer1"
     transform="translate(0,-588.59199)">
    <g
       id="g3293"
       transform="translate(-38.485968,448.74768)">
      <g
         transform="translate(-83.260252,-49.881057)"
         id="g3157">
        <path
           sodipodi:nodetypes="cssscccssssssssssssscsssssssssssssssssscsssssssssscsssssccsssssscsssssssscc"
           inkscape:connector-curvature="0"
           id="path3114"
           d="m 499.15419,651.13911 c -10.36543,-3.06055 -21.52396,-13.29444 -26.30618,-24.12635 -11.71891,-26.54378 4.81663,-56.82659 33.86393,-62.01763 12.11967,-2.1659 25.8643,1.58588 35.88172,9.7944 5.13176,4.20509 11.64811,13.80585 13.36563,19.69204 3.78564,10.94166 3.03353,19.42685 -0.0226,29.22912 -9.51574,23.67841 -32.94379,35.06422 -56.78246,27.42842 z m -96.90797,-45.14966 c -18.65128,-6.56388 -30.51651,-23.18193 -30.48918,-42.70211 0.0178,-12.72361 3.75365,-21.98536 12.6156,-31.27619 17.54125,-18.39017 45.84763,-18.62241 63.9454,-0.52463 22.22367,22.22367 16.12627,58.23302 -12.23386,72.24935 -7.11027,3.51409 -8.3749,3.80443 -17.74689,4.07443 -8.22748,0.23702 -11.19913,-0.0992 -16.09107,-1.82085 z m 100.01016,-60.10633 c -11.218,-2.13923 -22.82172,-10.02166 -28.87963,-19.618 -4.9331,-7.81454 -6.87291,-15.6961 -6.45002,-26.20678 0.32629,-8.10955 0.84622,-10.4892 3.55231,-16.25853 4.38684,-9.35263 11.79231,-16.9033 21.08036,-21.4937 6.72435,-3.32335 8.4132,-3.7258 17.07464,-4.06882 7.87667,-0.31194 10.75485,0.005 15.94089,1.75733 16.34458,5.52162 27.39741,18.41821 30.23433,35.27783 3.91993,23.29582 -12.36685,46.292 -35.95386,50.76518 -6.26665,1.18845 -9.72541,1.15625 -16.59902,-0.15451 z M 299.4447,543.96281 c -26.93917,-6.3397 -41.47671,-36.88758 -29.52816,-62.04783 6.47623,-13.6371 18.83076,-22.83314 33.62551,-25.029 19.03224,-2.82479 38.23437,7.45801 46.49556,24.89853 3.0569,6.45355 3.20861,7.34121 3.20861,18.77383 0,11.42708 -0.15285,12.32268 -3.20145,18.75853 -9.07635,19.16091 -30.19597,29.44772 -50.60007,24.64594 z m 92.40615,-47.42257 c -12.67135,-3.5588 -22.79844,-12.03669 -28.7409,-24.06045 -2.96695,-6.00321 -3.66113,-8.64544 -4.09207,-15.57555 -1.22031,-19.62391 8.25679,-35.92297 25.72834,-44.24852 6.14872,-2.92999 7.14852,-3.09738 18.5,-3.09738 11.42708,0 12.32268,0.15285 18.75853,3.20145 9.48934,4.49502 16.9928,11.9077 21.50966,21.24946 3.24874,6.71902 3.69317,8.59368 4.04181,17.04909 0.32279,7.82847 0.009,10.63418 -1.78581,15.94604 -4.45594,13.19073 -14.08201,23.28249 -26.79942,28.09592 -7.48199,2.83186 -19.82977,3.48746 -27.12014,1.43994 z m 87.89537,-56.77798 c -19.09572,-5.46987 -32.94054,-23.05689 -32.98813,-41.9047 -0.0822,-32.57713 33.45928,-54.24527 62.56988,-40.42071 9.79246,4.65042 16.42185,11.32843 21.21905,21.37467 3.55585,7.44662 3.69725,8.15371 3.64896,18.24682 -0.041,8.56323 -0.4684,11.50669 -2.31725,15.95764 -4.74154,11.41484 -14.38179,21.02184 -25.31833,25.23101 -6.63603,2.55403 -20.46051,3.33525 -26.81418,1.51527 z m -180,-1.13689 c -12.91616,-3.59971 -22.93016,-12.00095 -28.64259,-24.0297 -11.69014,-24.61612 1.11506,-53.42553 27.34799,-61.52806 16.07408,-4.96477 33.25068,-0.30474 44.78071,12.14907 16.8551,18.20552 16.29437,45.30055 -1.28449,62.06794 -6.36416,6.07038 -12.0689,9.37549 -19.70162,11.41437 -6.13849,1.63973 -16.47363,1.60591 -22.5,-0.0736 z m 98,-59.44192 c -20.41849,-6.56115 -33.57634,-27.92215 -30.05586,-48.79395 3.27206,-19.39898 17.5347,-33.93803 36.80909,-37.52247 18.33317,-3.4094 38.70079,7.06473 47.04158,24.19131 11.81682,24.26408 0.59389,52.57349 -24.44525,61.66221 -8.08497,2.93469 -21.02228,3.13873 -29.34956,0.4629 z m -198.5,-44.59173 c -19.15809,-3.51993 -39.95104,-13.75655 -58,-28.55409 -7.81412,-6.40645 -19.5,-18.27096 -19.5,-19.79808 0,-1.20465 11.19865,-9.48331 19.68711,-14.5538 16.6377,-9.93836 31.57074,-14.56769 49.5307,-15.35482 24.61005,-1.07857 43.36721,4.59777 66.28219,20.05851 9.40705,6.34694 35.5,31.29869 35.5,33.94738 0,2.81958 -21.26555,14.29055 -36.37882,19.6233 -4.88336,1.7231 -12.7048,3.80011 -17.38099,4.61557 -10.21853,1.78196 -30.08508,1.78998 -39.74019,0.016 z"
           style="fill:#65366e" />
        <path
           sodipodi:nodetypes="csssscccsssssssssssssssssssscsssssssssscsssssccsssssscsssssssscc"
           inkscape:connector-curvature="0"
           id="path3112"
           d="m 500.50817,651.11648 c -18.51194,-5.9178 -30.76195,-22.70297 -30.76195,-42.15055 0,-17.34069 9.81956,-32.6634 25.77667,-40.22261 6.34462,-3.00558 7.37109,-3.18498 18.22333,-3.18498 10.86453,0 11.87346,0.17691 18.25853,3.20145 9.10936,4.31502 16.87007,11.83325 21.24792,20.58406 6.11372,10.73697 5.93443,22.93519 2.50314,33.21449 -11.19363,23.89071 -31.86848,36.48061 -55.24764,28.55814 z m -96.96425,-44.98894 c -8.05225,-2.57462 -13.53451,-6.04032 -19.45128,-12.29643 -10.96953,-11.59865 -14.84079,-26.77351 -10.79442,-42.31267 5.60869,-21.53887 28.19013,-36.28407 50.0258,-32.66578 29.84009,4.94467 46.68223,36.6416 33.86525,63.73447 -9.2653,19.58525 -33.18605,30.08204 -53.64535,23.54041 z m -102.7977,-62.16715 c -7.02366,-1.37168 -16.20887,-6.39663 -21.66392,-11.85168 -17.78895,-17.78896 -17.64521,-46.11879 0.32021,-63.10974 13.40163,-12.6747 33.24292,-15.86353 49.73378,-7.99305 15.25205,7.27923 24.60993,22.43757 24.60993,39.86432 0,28.14059 -25.09148,48.5405 -53,43.09015 z m 91.10463,-47.42015 c -12.67135,-3.5588 -22.79844,-12.03669 -28.7409,-24.06045 -2.96695,-6.00321 -3.66113,-8.64544 -4.09207,-15.57555 -1.22031,-19.62391 8.25679,-35.92297 25.72834,-44.24852 6.14872,-2.92999 7.14852,-3.09738 18.5,-3.09738 11.42708,0 12.32268,0.15285 18.75853,3.20145 9.48934,4.49502 16.9928,11.9077 21.50966,21.24946 3.24874,6.71902 3.69317,8.59368 4.04181,17.04909 0.32279,7.82847 0.009,10.63418 -1.78581,15.94604 -4.45594,13.19073 -14.08201,23.28249 -26.79942,28.09592 -7.48199,2.83186 -19.82977,3.48746 -27.12014,1.43994 z m 87.89537,-56.77798 c -19.09572,-5.46987 -32.94054,-23.05689 -32.98813,-41.9047 -0.0822,-32.57713 33.45928,-54.24527 62.56988,-40.42071 9.79246,4.65042 16.42185,11.32843 21.21905,21.37467 3.55585,7.44662 3.69725,8.15371 3.64896,18.24682 -0.041,8.56323 -0.4684,11.50669 -2.31725,15.95764 -4.74154,11.41484 -14.38179,21.02184 -25.31833,25.23101 -6.63603,2.55403 -20.46051,3.33525 -26.81418,1.51527 z m -180,-1.13689 c -12.91616,-3.59971 -22.93016,-12.00095 -28.64259,-24.0297 -11.69014,-24.61612 1.11506,-53.42553 27.34799,-61.52806 16.07408,-4.96477 33.25068,-0.30474 44.78071,12.14907 16.8551,18.20552 16.29437,45.30055 -1.28449,62.06794 -6.36416,6.07038 -12.0689,9.37549 -19.70162,11.41437 -6.13849,1.63973 -16.47363,1.60591 -22.5,-0.0736 z m 97.66644,-59.64073 c -21.38447,-7.35613 -33.85473,-28.94276 -29.28974,-50.70195 3.89104,-18.5468 17.76023,-31.92267 36.58902,-35.28756 18.54671,-3.31448 38.49993,6.93987 46.82294,24.06321 12.04085,24.77225 -0.28769,54.11099 -26.12775,62.17726 -7.98727,2.49331 -20.33867,2.38259 -27.99447,-0.25096 z M 199.24622,334.59172 c -19.15809,-3.51993 -39.95104,-13.75655 -58,-28.55409 -7.81412,-6.40645 -19.5,-18.27096 -19.5,-19.79808 0,-1.20465 11.19865,-9.48331 19.68711,-14.5538 16.6377,-9.93836 31.57074,-14.56769 49.5307,-15.35482 24.61005,-1.07857 43.36721,4.59777 66.28219,20.05851 9.40705,6.34694 35.5,31.29869 35.5,33.94738 0,2.81958 -21.26555,14.29055 -36.37882,19.6233 -4.88336,1.7231 -12.7048,3.80011 -17.38099,4.61557 -10.21853,1.78196 -30.08508,1.78998 -39.74019,0.016 z"
           style="fill:#7d255e" />
        <path
           sodipodi:nodetypes="csssscccsssssssssssssssssssscsssssssssssssscsssssssscc"
           inkscape:connector-curvature="0"
           id="path3110"
           d="m 500.50817,651.11648 c -18.51194,-5.9178 -30.76195,-22.70297 -30.76195,-42.15055 0,-17.34069 9.81956,-32.6634 25.77667,-40.22261 6.34462,-3.00558 7.37109,-3.18498 18.22333,-3.18498 10.86453,0 11.87346,0.17691 18.25853,3.20145 9.10936,4.31502 16.87007,11.83325 21.24792,20.58406 5.84166,12.84199 6.02096,22.44812 2.50314,33.21449 -11.15322,23.81218 -31.82974,36.5117 -55.24764,28.55814 z m -96.96425,-44.98894 c -8.05225,-2.57462 -13.53451,-6.04032 -19.45128,-12.29643 -10.96953,-11.59865 -14.84079,-26.77351 -10.79442,-42.31267 5.60869,-21.53887 28.19013,-36.28407 50.0258,-32.66578 29.84009,4.94467 46.68223,36.6416 33.86525,63.73447 -9.2653,19.58525 -33.18605,30.08204 -53.64535,23.54041 z m -102.7977,-62.16715 c -7.02366,-1.37168 -16.20887,-6.39663 -21.66392,-11.85168 -17.78895,-17.78896 -17.64521,-46.11879 0.32021,-63.10974 13.40163,-12.6747 33.24292,-15.86353 49.73378,-7.99305 15.25205,7.27923 24.60993,22.43757 24.60993,39.86432 0,28.14059 -25.09148,48.5405 -53,43.09015 z m 91.10463,-47.42015 c -12.67135,-3.5588 -22.79844,-12.03669 -28.7409,-24.06045 -2.96695,-6.00321 -3.66113,-8.64544 -4.09207,-15.57555 -1.22031,-19.62391 8.25679,-35.92297 25.72834,-44.24852 6.14872,-2.92999 7.14852,-3.09738 18.5,-3.09738 11.42708,0 12.32268,0.15285 18.75853,3.20145 9.48934,4.49502 16.9928,11.9077 21.50966,21.24946 3.24874,6.71902 3.69317,8.59368 4.04181,17.04909 0.32279,7.82847 0.009,10.63418 -1.78581,15.94604 -4.45594,13.19073 -14.08201,23.28249 -26.79942,28.09592 -7.48199,2.83186 -19.82977,3.48746 -27.12014,1.43994 z m -92,-58.06442 c -23.53322,-6.32844 -37.67259,-30.45969 -31.57172,-53.88252 2.2043,-8.4629 5.95894,-14.74582 12.59409,-21.07468 17.05535,-16.26806 42.74816,-16.3944 60.36148,-0.29681 6.50731,5.94732 12.04842,16.31183 13.54547,25.33653 5.19859,31.33857 -24.30722,58.15223 -54.92932,49.91748 z m 97.56181,-59.49118 c -21.38447,-7.35613 -33.85473,-28.94276 -29.28974,-50.70195 3.89104,-18.5468 17.76023,-31.92267 36.58902,-35.28756 18.54671,-3.31448 38.49993,6.93987 46.82294,24.06321 12.04085,24.77225 -0.28769,54.11099 -26.12775,62.17726 -7.98727,2.49331 -20.33867,2.38259 -27.99447,-0.25096 z M 199.24622,334.59172 c -19.15809,-3.51993 -39.95104,-13.75655 -58,-28.55409 -7.81412,-6.40645 -19.5,-18.27096 -19.5,-19.79808 0,-1.20465 11.19865,-9.48331 19.68711,-14.5538 16.6377,-9.93836 31.57074,-14.56769 49.5307,-15.35482 24.61005,-1.07857 43.36721,4.59777 66.28219,20.05851 9.40705,6.34694 35.5,31.29869 35.5,33.94738 0,2.81958 -21.26555,14.29055 -36.37882,19.6233 -4.88336,1.7231 -12.7048,3.80011 -17.38099,4.61557 -10.21853,1.78196 -30.08508,1.78998 -39.74019,0.016 z"
           style="fill:#5a3359" />
        <path
           inkscape:connector-curvature="0"
           id="path3108"
           d="m 407.85455,607.03451 c -13.07316,-2.73941 -24.92536,-11.77946 -30.66038,-23.38564 -12.64491,-25.58997 -10e-4,-55.26901 26.87416,-63.08184 25.32194,-7.36129 50.79703,8.36254 56.29874,34.74893 4.27209,20.48903 -7.97879,41.99101 -28.33058,49.72408 -6.00042,2.27998 -18.06911,3.27538 -24.18194,1.99447 z m -12.10833,-110.1019 c -13.12081,-2.12779 -26.44668,-12.1934 -32.07994,-24.2314 -6.25808,-13.37321 -6.18388,-26.26768 0.22608,-39.28815 3.46154,-7.03139 12.0107,-15.8636 18.61795,-19.23437 27.07643,-13.81336 59.38137,2.32957 64.50357,32.23274 2.30083,13.43217 -2.34422,27.68582 -12.31212,37.78057 -6.52901,6.6121 -13.6276,10.47672 -22.82447,12.42609 -7.38698,1.56575 -8.30508,1.58365 -16.13107,0.31452 z m -95.89537,-58.45679 c -23.53322,-6.32844 -37.67259,-30.45969 -31.57172,-53.88252 2.2043,-8.4629 5.95894,-14.74582 12.59409,-21.07468 17.05535,-16.26806 42.74816,-16.3944 60.36148,-0.29681 6.50731,5.94732 12.04842,16.31183 13.54547,25.33653 5.19859,31.33857 -24.30722,58.15223 -54.92932,49.91748 z m 98.66707,-59.76213 c -7.93266,-2.70347 -16.63627,-8.43394 -20.80609,-13.69877 -1.63886,-2.06923 -4.43906,-6.84346 -6.22268,-10.60941 -3.03373,-6.40546 -3.23951,-7.52453 -3.18989,-17.34717 0.0423,-8.37484 0.49625,-11.61318 2.24287,-16 4.39118,-11.02887 14.12564,-20.77156 25.20409,-25.22539 4.45725,-1.79194 7.49071,-2.21115 16,-2.21115 8.50929,0 11.54275,0.41921 16,2.21115 11.06411,4.44807 20.77732,14.16128 25.22539,25.22539 1.78115,4.43042 2.21732,7.54193 2.24288,16 0.0304,10.07546 -0.11784,10.81322 -3.66747,18.24682 -9.83166,20.58935 -32.25595,30.48806 -53.0291,23.40853 z m -199.2717,-44.12197 c -19.15809,-3.51993 -39.95104,-13.75655 -58,-28.55409 -7.81412,-6.40645 -19.5,-18.27096 -19.5,-19.79808 0,-1.20465 11.19865,-9.48331 19.68711,-14.5538 16.6377,-9.93836 31.57074,-14.56769 49.5307,-15.35482 24.61005,-1.07857 43.36721,4.59777 66.28219,20.05851 9.40705,6.34694 35.5,31.29869 35.5,33.94738 0,2.81958 -21.26555,14.29055 -36.37882,19.6233 -4.88336,1.7231 -12.7048,3.80011 -17.38099,4.61557 -10.21853,1.78196 -30.08508,1.78998 -39.74019,0.016 z"
           style="fill:#732142" />
        <path
           inkscape:connector-curvature="0"
           id="path3106"
           d="m 407.85455,607.03451 c -13.07316,-2.73941 -24.92536,-11.77946 -30.66038,-23.38564 -12.64491,-25.58997 -10e-4,-55.26901 26.87416,-63.08184 25.32194,-7.36129 50.79703,8.36254 56.29874,34.74893 4.27209,20.48903 -7.97879,41.99101 -28.33058,49.72408 -6.00042,2.27998 -18.06911,3.27538 -24.18194,1.99447 z m -12.10833,-110.1019 c -13.12081,-2.12779 -26.44668,-12.1934 -32.07994,-24.2314 -6.25808,-13.37321 -6.18388,-26.26768 0.22608,-39.28815 3.46154,-7.03139 12.0107,-15.8636 18.61795,-19.23437 27.07643,-13.81336 59.38137,2.32957 64.50357,32.23274 2.30083,13.43217 -2.34422,27.68582 -12.31212,37.78057 -6.52901,6.6121 -13.6276,10.47672 -22.82447,12.42609 -7.38698,1.56575 -8.30508,1.58365 -16.13107,0.31452 z m 2.7717,-118.21892 c -7.93266,-2.70347 -16.63627,-8.43394 -20.80609,-13.69877 -1.63886,-2.06923 -4.43906,-6.84346 -6.22268,-10.60941 -3.03373,-6.40546 -3.23951,-7.52453 -3.18989,-17.34717 0.0423,-8.37484 0.49625,-11.61318 2.24287,-16 4.39118,-11.02887 14.12564,-20.77156 25.20409,-25.22539 4.45725,-1.79194 7.49071,-2.21115 16,-2.21115 8.50929,0 11.54275,0.41921 16,2.21115 11.06411,4.44807 20.77732,14.16128 25.22539,25.22539 1.78115,4.43042 2.21732,7.54193 2.24288,16 0.0304,10.07546 -0.11784,10.81322 -3.66747,18.24682 -9.83166,20.58935 -32.25595,30.48806 -53.0291,23.40853 z m -199.2717,-44.12197 c -19.15809,-3.51993 -39.95104,-13.75655 -58,-28.55409 -7.81412,-6.40645 -19.5,-18.27096 -19.5,-19.79808 0,-1.20465 11.19865,-9.48331 19.68711,-14.5538 16.6377,-9.93836 31.57074,-14.56769 49.5307,-15.35482 24.61005,-1.07857 43.36721,4.59777 66.28219,20.05851 9.40705,6.34694 35.5,31.29869 35.5,33.94738 0,2.81958 -21.26555,14.29055 -36.37882,19.6233 -4.88336,1.7231 -12.7048,3.80011 -17.38099,4.61557 -10.21853,1.78196 -30.08508,1.78998 -39.74019,0.016 z"
           style="fill:#493153" />
        <path
           inkscape:connector-curvature="0"
           id="path3104"
           d="m 403.23316,605.25957 c -12.01201,-4.15365 -21.43089,-12.58301 -26.74196,-23.93251 -6.04453,-12.91685 -4.7505,-29.76133 3.23553,-42.11726 9.22837,-14.2781 27.15022,-22.24822 43.6664,-19.41912 24.06205,4.12166 40.3342,26.3029 36.66863,49.98452 -2.59599,16.77152 -13.48898,29.66598 -29.80282,35.27876 -7.44849,2.56266 -19.93469,2.65766 -27.02578,0.20561 z m -7.48694,-108.32696 c -13.12081,-2.12779 -26.44668,-12.1934 -32.07994,-24.2314 -6.25808,-13.37321 -6.18388,-26.26768 0.22608,-39.28815 3.46154,-7.03139 12.0107,-15.8636 18.61795,-19.23437 27.07643,-13.81336 59.38137,2.32957 64.50357,32.23274 2.30083,13.43217 -2.34422,27.68582 -12.31212,37.78057 -6.52901,6.6121 -13.6276,10.47672 -22.82447,12.42609 -7.38698,1.56575 -8.30508,1.58365 -16.13107,0.31452 z m -196.5,-162.34089 c -19.15809,-3.51993 -39.95104,-13.75655 -58,-28.55409 -7.81412,-6.40645 -19.5,-18.27096 -19.5,-19.79808 0,-1.20465 11.19865,-9.48331 19.68711,-14.5538 16.6377,-9.93836 31.57074,-14.56769 49.5307,-15.35482 24.61005,-1.07857 43.36721,4.59777 66.28219,20.05851 9.40705,6.34694 35.5,31.29869 35.5,33.94738 0,2.81958 -21.26555,14.29055 -36.37882,19.6233 -4.88336,1.7231 -12.7048,3.80011 -17.38099,4.61557 -10.21853,1.78196 -30.08508,1.78998 -39.74019,0.016 z"
           style="fill:#51283b" />
        <path
           inkscape:connector-curvature="0"
           id="path3102"
           d="m 403.23316,605.25957 c -12.01201,-4.15365 -21.43089,-12.58301 -26.74196,-23.93251 -6.04453,-12.91685 -4.7505,-29.76133 3.23553,-42.11726 9.22837,-14.2781 27.15022,-22.24822 43.6664,-19.41912 24.06205,4.12166 40.3342,26.3029 36.66863,49.98452 -2.59599,16.77152 -13.48898,29.66598 -29.80282,35.27876 -7.44849,2.56266 -19.93469,2.65766 -27.02578,0.20561 z M 199.24622,334.59172 c -19.15809,-3.51993 -39.95104,-13.75655 -58,-28.55409 -7.81412,-6.40645 -19.5,-18.27096 -19.5,-19.79808 0,-1.20465 11.19865,-9.48331 19.68711,-14.5538 16.6377,-9.93836 31.57074,-14.56769 49.5307,-15.35482 24.61005,-1.07857 43.36721,4.59777 66.28219,20.05851 9.40705,6.34694 35.5,31.29869 35.5,33.94738 0,2.81958 -21.26555,14.29055 -36.37882,19.6233 -4.88336,1.7231 -12.7048,3.80011 -17.38099,4.61557 -10.21853,1.78196 -30.08508,1.78998 -39.74019,0.016 z"
           style="fill:#3d1c48" />
        <path
           sodipodi:nodetypes="csssssssscc"
           inkscape:connector-curvature="0"
           id="path3100"
           d="m 199.24622,334.59172 c -19.15809,-3.51993 -39.95104,-13.75655 -58,-28.55409 -7.81412,-6.40645 -19.5,-18.27096 -19.5,-19.79808 0,-1.20465 11.19865,-9.48331 19.68711,-14.5538 16.6377,-9.93836 31.57074,-14.56769 49.5307,-15.35482 24.61005,-1.07857 43.36721,4.59777 66.28219,20.05851 9.40705,6.34694 35.5,31.29869 35.5,33.94738 0,2.81958 -21.26555,14.29055 -36.37882,19.6233 -4.88336,1.7231 -12.7048,3.80011 -17.38099,4.61557 -10.21853,1.78196 -29.99038,1.85311 -39.74019,0.016 z"
           style="fill:#006c33" />
      </g>
      <path
         style="fill:#852a2a"
         d="m 246.7823,266.85058 c -0.70817,-1.65 -2.34834,-7.72499 -3.64478,-13.5 -8.52552,-37.97677 -9.96156,-85.58964 -3.07828,-102.06142 3.40956,-8.1591 9.31442,-12.34903 15.89786,-11.28068 3.9076,0.63411 43.97248,19.54724 44.39843,20.95883 0.14659,0.4858 -1.92075,2.36708 -4.5941,4.18062 -6.40001,4.34163 -18.4859,16.19165 -24.17442,23.70265 -15.07782,19.9084 -21.52922,38.5718 -22.8143,66 -0.63107,13.46934 -0.83417,14.69387 -1.99041,12 z"
         id="path3247"
         inkscape:connector-curvature="0" />
    </g>
  </g>
</svg>
