<?xml version="1.0" encoding="UTF-8" standalone="no"?>
<!-- Created with Inkscape (http://www.inkscape.org/) -->

<svg
   xmlns:dc="http://purl.org/dc/elements/1.1/"
   xmlns:cc="http://creativecommons.org/ns#"
   xmlns:rdf="http://www.w3.org/1999/02/22-rdf-syntax-ns#"
   xmlns:svg="http://www.w3.org/2000/svg"
   xmlns="http://www.w3.org/2000/svg"
   xmlns:sodipodi="http://sodipodi.sourceforge.net/DTD/sodipodi-0.dtd"
   xmlns:inkscape="http://www.inkscape.org/namespaces/inkscape"
   id="svg2992"
   version="1.1"
   inkscape:version="0.48.4 r9939"
   width="94.251762"
   height="129">
  <metadata
     id="metadata2998">
    <rdf:RDF>
      <cc:Work
         rdf:about="">
        <dc:format>image/svg+xml</dc:format>
        <dc:type
           rdf:resource="http://purl.org/dc/dcmitype/StillImage" />
      </cc:Work>
    </rdf:RDF>
  </metadata>
  <defs
     id="defs2996" />
  <sodipodi:namedview
     pagecolor="#ffffff"
     bordercolor="#666666"
     borderopacity="1"
     objecttolerance="10"
     gridtolerance="10"
     guidetolerance="10"
     inkscape:pageopacity="0"
     inkscape:pageshadow="2"
     inkscape:window-width="640"
     inkscape:window-height="480"
     id="namedview2994" />
  <inkscape:clipboard
     id="clipboard3000"
     style="color:#000000;fill:#a576b4;fill-opacity:1;fill-rule:nonzero;stroke-width:1;stroke-linecap:butt;stroke-linejoin:miter;stroke-miterlimit:4;stroke-opacity:1;stroke-dasharray:none;stroke-dashoffset:0;marker:none;visibility:visible;display:inline;overflow:visible;enable-background:accumulate"
     min="286.32078,488.60735"
     max="380.57254,617.60735" />
  <path
     style="fill:#a576b4"
     d="m 68.823194,127.42857 c -1.71655,-1.71655 -2.1304,-8.99712 -0.64482,-11.34406 1.11575,-1.76268 10.11604,-1.61786 11.25874,0.18116 0.43121,0.67888 0.79092,3.356 0.79934,5.94915 0.0118,3.64781 -0.42243,4.94908 -1.91895,5.75 -2.85951,1.53036 -7.70116,1.2569 -9.49431,-0.53625 z m 16.05176,-6.71483 c -1.32459,-0.96857 -1.68054,-2.38879 -1.44113,-5.75 0.31794,-4.46374 0.31794,-4.46374 5.31794,-4.46374 5,0 5,0 5.31794,4.46374 0.34572,4.85368 -1.30386,7.03626 -5.31794,7.03626 -1.16476,0 -2.90932,-0.57882 -3.87681,-1.28626 z m -31.90947,-1.33335 c -0.39255,-0.39255 -0.71372,-2.88015 -0.71372,-5.528 0,-4.2468 0.2827,-4.88524 2.39829,-5.41622 1.31906,-0.33106 3.45656,-0.45213 4.75,-0.26905 2.14354,0.30341 2.35171,0.81973 2.35171,5.83288 0,5.5 0,5.5 -4.03628,5.79705 -2.21995,0.16338 -4.35745,-0.0241 -4.75,-0.41666 z m 17.26606,-8.41816 c -1.40118,-2.61815 -0.41971,-5.68783 2.07137,-6.47847 4.62403,-1.46761 8.16493,2.37547 5.96907,6.47847 -1.48162,2.76843 -6.55882,2.76843 -8.04044,0 z m 15.40426,-4.40382 c -1.16108,-3.02574 0.0818,-5.0535 3.28868,-5.36539 2.48109,-0.24131 3.29926,0.14334 3.82442,1.79798 0.37081,1.16831 0.13187,2.75109 -0.53697,3.55699 -1.55352,1.87188 -5.8592,1.8787 -6.57613,0.0104 z m -31.17087,-1.14197 c -1.31637,-2.35224 -0.37962,-5.22884 1.94279,-5.96594 2.69007,-0.8538 5.00421,1.37031 4.6446,4.4639 -0.22812,1.96246 -0.94346,2.65994 -2.96815,2.89407 -1.71157,0.19792 -3.00864,-0.30096 -3.61924,-1.39203 z M 32.251764,102 c -1.57972,-1.57972 -2,-3.33333 -2,-8.34501 0,-8.11057 1.46744,-9.65499 9.17375,-9.65499 7.36366,0 8.82625,1.62871 8.82625,9.82874 0,8.04739 -1.8793,10.17126 -9,10.17126 -3.66667,0 -5.53333,-0.53333 -7,-2 z m 37.40338,-5.50712 c -2.29026,-3.49537 -1.55413,-14.17826 1.11128,-16.12726 2.1974,-1.60678 10.77538,-1.81595 13.55108,-0.33044 1.6574,0.88702 1.93426,2.14661 1.93426,8.8 0,4.70597 -0.47272,8.23754 -1.2,8.96482 -0.67843,0.67843 -3.92821,1.2 -7.47695,1.2 -5.59668,0 -6.45498,-0.27171 -7.91967,-2.50712 z m -53.33601,0.0883 c -0.67832,-0.81733 -1.04819,-3.67894 -0.87244,-6.75 0.30507,-5.33118 0.30507,-5.33118 4.62897,-5.64229 5.74333,-0.41324 7.1761,0.96408 7.1761,6.89837 0,3.76406 -0.43073,5.07289 -1.93426,5.87756 -2.77129,1.48315 -7.62066,1.2764 -8.99837,-0.38364 z m 35.48933,-4.80369 c -0.85618,-1.22237 -1.5567,-4.04725 -1.5567,-6.27749 0,-2.23024 0.70052,-5.05512 1.5567,-6.27749 C 53.055994,77.44142 54.335714,77 58.251764,77 c 3.91605,0 5.19577,0.44142 6.4433,2.22251 0.86389,1.23338 1.5567,4.27975 1.5567,6.84501 0,5.96528 -2.05141,7.93248 -8.27204,7.93248 -3.63493,0 -4.94502,-0.47182 -6.17126,-2.22251 z m -32.3707,-9.86407 c -1.87141,-0.72488 -2.25394,-1.51956 -2,-4.15487 0.26369,-2.73642 0.76433,-3.31019 3.12447,-3.58081 1.54576,-0.17724 3.47998,0.23338 4.29826,0.9125 3.51876,2.92031 -0.95761,8.55274 -5.42273,6.82318 z m 15.3707,-2.13593 c -0.85618,-1.22237 -1.5567,-3.16893 -1.5567,-4.32568 0,-2.68818 3.97517,-6.45181 6.81445,-6.45181 5.1979,0 8.21413,7.85419 4.35681,11.34501 -2.68165,2.42686 -7.72576,2.12912 -9.61456,-0.56752 z m 39.843,-3.5428 C 69.539724,72.82148 72.121684,64 78.232434,64 c 3.08148,0 7.01933,3.69809 7.01933,6.59194 0,3.52536 -2.84517,6.40935 -6.3067,6.39275 -1.75632,-0.008 -3.68843,-0.34592 -4.2936,-0.75 z M 55.474274,74.4433 c -4.13812,-2.89845 -1.96338,-9.6933 3.1024,-9.6933 3.61945,0 5.67509,1.92548 5.67509,5.31574 0,2.70595 -2.99206,5.93426 -5.5,5.93426 -0.58024,0 -2.05512,-0.70052 -3.27749,-1.5567 z m -42.65108,-6.01473 c -1.12617,-1.12616 -1.57143,-3.53463 -1.57143,-8.5 0,-8.9732 1.65995,-10.92857 9.27749,-10.92857 3.15808,0 6.17005,0.62516 7.5,1.5567 1.93722,1.35688 2.22251,2.45642 2.22251,8.56575 0,10.14053 -0.60735,10.87755 -8.96376,10.87755 -4.93338,0 -7.34019,-0.44681 -8.46481,-1.57143 z M 36.251764,63 c -1.70129,-1.70129 -2,-3.33333 -2,-10.92742 0,-8.45336 0.13991,-9.03748 2.63486,-11 C 38.929884,39.46535 40.960844,39 45.932074,39 c 5.47298,0 6.7696,0.359 8.86514,2.45455 2.20157,2.20156 2.45455,3.28844 2.45455,10.54545 0,7.25701 -0.25298,8.34389 -2.45455,10.54545 -2.14154,2.14155 -3.35297,2.45455 -9.5,2.45455 -5.71212,0 -7.42394,-0.37849 -9.04545,-2 z m 25.46305,-3.28062 c -1.96361,-1.09889 -1.99194,-10.03555 -0.037,-11.65804 0.78435,-0.65096 3.37185,-1.04356 5.75,-0.87245 4.3239,0.31111 4.3239,0.31111 4.63111,5.7039 0.16897,2.96603 -0.12259,5.82259 -0.64791,6.34791 -1.22413,1.22413 -7.78541,1.54804 -9.69625,0.47868 z M 16.251764,45 c -1.1,-1.1 -2,-3.14545 -2,-4.54545 0,-2.84112 4.03524,-7.45455 6.52029,-7.45455 1.96348,0 5.71151,1.89774 6.7144,3.3997 1.39201,2.08473 0.7741,7.28237 -1.06343,8.94531 -2.51611,2.27705 -7.72592,2.10033 -10.17126,-0.34501 z m 47.24508,-1.15492 c -1.96236,-1.96236 -1.46168,-4.65705 1.18786,-6.3931 1.92253,-1.25969 2.87885,-1.35548 4.55841,-0.45661 1.61192,0.86267 2.05094,1.9067 1.81705,4.32107 -0.26382,2.72342 -0.74272,3.22621 -3.31332,3.47864 -1.65271,0.16229 -3.56521,-0.26521 -4.25,-0.95 z M 40.515504,34.75 c -3.43162,-3.7034 -3.35328,-8.75137 0.19081,-12.29546 3.16135,-3.16135 7.57364,-3.19453 11.18969,-0.0841 5.81968,5.00589 2.10677,14.6296 -5.64424,14.6296 -2.5022,0 -4.30753,-0.70813 -5.73626,-2.25 z M 17.686384,27.13424 C 9.2428941,23.24802 2.3626641,14.95777 0.4375841,6.35049 -0.0728559,4.06826 -0.1477559,1.64644 0.2711341,0.96866 2.0102941,-1.84536 16.284794,3.68395 20.230424,8.7 c 1.79528,2.28233 1.79528,2.28233 4.48186,-3.20883 C 26.189904,2.47102 27.779064,0 28.243754,0 c 2.09473,0 5.26943,7.41309 5.70114,13.31247 0.37275,5.09358 0.0421,6.98313 -1.87016,10.68753 -2.11227,4.09183 -2.68579,4.52292 -6.32297,4.75269 -2.29948,0.14526 -5.72831,-0.54279 -8.06538,-1.61845 z"
     id="path3266"
     inkscape:connector-curvature="0" />
  <path
     style="fill:#8d659a"
     d="m 68.823194,127.42857 c -1.87104,-1.87104 -2.12265,-9.47735 -0.37143,-11.22857 0.66,-0.66 3.31186,-1.2 5.89301,-1.2 5.25448,0 5.90699,0.77439 5.90699,7.01036 0,4.74782 -2.08478,6.98964 -6.5,6.98964 -1.84643,0 -4.06429,-0.70714 -4.92857,-1.57143 z m 14.85174,-7.7682 c -0.30604,-0.79753 -0.41395,-3.18487 -0.2398,-5.30521 0.31491,-3.83422 0.34226,-3.85681 5.03416,-4.15863 4.27884,-0.27524 4.7743,-0.0772 5.32808,2.12918 0.3358,1.33795 0.46292,3.7245 0.28247,5.30346 -0.30419,2.66181 -0.67466,2.89305 -5.08828,3.17604 -3.44757,0.22104 -4.91364,-0.0947 -5.31663,-1.14484 z m -30.70945,-0.27998 c -1.17475,-1.17476 -0.80633,-8.88778 0.48628,-10.18039 1.37528,-1.37528 5.67432,-1.56616 7.61105,-0.33794 0.8678,0.55034 1.20589,2.48915 1,5.73469 -0.31105,4.90325 -0.31105,4.90325 -4.34733,5.2003 -2.21995,0.16338 -4.35745,-0.0241 -4.75,-0.41666 z m 18.33196,-7.82535 c -2.84426,-3.42712 1.07853,-9.22068 4.70432,-6.9478 3.56834,2.23687 2.28475,8.39276 -1.75,8.39276 -0.96531,0 -2.29475,-0.65023 -2.95432,-1.44496 z m 14.88475,-5.13886 c -0.95288,-1.14815 -1.02584,-2.04215 -0.26526,-3.25 1.49134,-2.36833 4.48106,-2.68669 5.97999,-0.63678 2.77564,3.79592 -2.69958,7.51981 -5.71473,3.88678 z M 55.451764,105.8 c -2.99413,-2.99413 0.4054,-7.71959 4.07582,-5.66552 2.89227,1.6186 1.53511,6.86552 -1.77582,6.86552 -0.605,0 -1.64,-0.54 -2.3,-1.2 z m -24.16482,-4.73426 C 29.694374,98.08999 30.021714,88.77346 31.808464,86.22251 33.117334,84.35383 34.302344,84 39.251764,84 c 4.94942,0 6.13443,0.35383 7.4433,2.22251 1.78675,2.55095 2.11409,11.86748 0.52152,14.84323 -0.87057,1.62667 -2.13715,1.93426 -7.96482,1.93426 -5.82767,0 -7.09425,-0.30759 -7.96482,-1.93426 z M 70.451764,97.8 c -0.72728,-0.72728 -1.2,-4.25885 -1.2,-8.96482 0,-9.03928 0.71721,-9.83518 8.86283,-9.83518 7.01272,0 8.13717,1.4332 8.13717,10.37143 0,4.28889 -0.48801,7.71658 -1.2,8.42857 -0.67104,0.67104 -3.88889,1.2 -7.3,1.2 -3.41111,0 -6.62896,-0.52896 -7.3,-1.2 z m -53.50988,-1.00902 c -1.44009,-1.07554 -1.74656,-2.46924 -1.5,-6.82135 0.30988,-5.46963 0.30988,-5.46963 4.63378,-5.78074 2.37815,-0.17111 4.96565,0.22149 5.75,0.87245 1.54172,1.27951 1.93677,8.58555 0.57987,10.72409 -1.22988,1.93835 -7.34472,2.58808 -9.46365,1.00555 z M 52.451764,92.8 c -0.67794,-0.67794 -1.2,-3.92551 -1.2,-7.46482 0,-5.17038 0.33791,-6.44565 1.93426,-7.3 2.63516,-1.41029 9.39314,-1.30778 10.86574,0.16482 0.67104,0.67104 1.2,3.88889 1.2,7.3 0,3.41111 -0.52896,6.62896 -1.2,7.3 -0.66,0.66 -3.27,1.2 -5.8,1.2 -2.53,0 -5.14,-0.54 -5.8,-1.2 z M 18.494744,80.84298 c -2.89869,-2.89869 -0.30655,-7.27343 3.95198,-6.66974 1.90542,0.27011 2.30504,0.93354 2.30504,3.82676 0,2.99137 -0.36433,3.54258 -2.50702,3.79298 -1.37887,0.16113 -3.06637,-0.26637 -3.75,-0.95 z m 17.50288,-0.093 c -0.90002,-0.6875 -1.92912,-2.46485 -2.2869,-3.94968 -0.50445,-2.09348 -0.0778,-3.27233 1.89981,-5.25 1.40268,-1.40267 3.18509,-2.55032 3.96092,-2.55032 2.56152,0 6.68031,4.05237 6.68031,6.57258 0,4.97413 -6.33375,8.1721 -10.25414,5.17742 z m 37.90913,-5.57874 c -0.91025,-1.00579 -1.65499,-3.24541 -1.65499,-4.97693 0,-6.23038 8.03414,-8.12422 11.57028,-2.7274 4.00061,6.10571 -5.01932,13.11434 -9.91529,7.70435 z m -19.08356,-1.74269 c -2.08791,-2.08791 -1.98707,-4.74245 0.25731,-6.77358 2.3047,-2.08572 5.56186,-2.12153 7.59983,-0.0836 1.82683,1.82683 1.98822,3.78128 0.53625,6.49431 -1.2745,2.38142 -6.16346,2.59276 -8.39339,0.36283 z m -41.91644,-5.25731 c -1.19185,-1.31696 -1.65499,-3.69563 -1.65499,-8.49998 0,-8.76289 1.69891,-10.67126 9.5,-10.67126 7.84384,0 9.5,1.89064 9.5,10.84501 0,8.79585 -1.29473,10.15499 -9.67375,10.15499 -4.55848,0 -6.41729,-0.44312 -7.67126,-1.82874 z M 36.886624,62.9274 C 34.394564,60.96716 34.251764,60.37495 34.251764,52 c 0,-8.46754 0.12028,-8.94967 2.75,-11.02302 2.34598,-1.84964 3.74121,-2.11263 9.49679,-1.79007 9.47559,0.53103 10.25321,1.51221 10.25321,12.93716 0,8.30729 -0.19437,9.21003 -2.36078,10.96428 -3.44155,2.7868 -13.87892,2.69084 -17.50436,-0.16093 z m 23.99051,-4.4613 c -1.13278,-2.95199 -0.65202,-9.19911 0.80073,-10.40478 0.78435,-0.65096 3.37185,-1.04356 5.75,-0.87245 4.3239,0.31113 4.3239,0.31113 4.3239,6.31113 0,6 0,6 -5.12463,6.29791 -3.99907,0.23248 -5.26198,-0.06 -5.75,-1.33179 z M 16.267824,44.29328 C 12.509274,39.51506 15.466894,34 21.787904,34 c 5.89393,0 8.65642,6.80744 4.46386,11 -2.90628,2.90628 -7.39171,2.58878 -9.98394,-0.70672 z m 47.01601,-1.23335 c -1.64592,-3.07543 0.35863,-6.26908 3.68433,-5.86986 3.34865,0.40197 5.17674,3.16572 3.67762,5.55993 -1.64396,2.62555 -6.02398,2.80994 -7.36195,0.30993 z m -22.57752,-8.51448 c -2.60445,-2.60444 -3.24304,-7.20363 -1.46223,-10.53111 0.54578,-1.01979 2.54323,-2.36601 4.43877,-2.9916 2.78332,-0.91858 4.01214,-0.8449 6.3865,0.38293 3.34637,1.73048 4.18241,3.35032 4.18241,8.10354 0,6.69007 -8.66861,9.91309 -13.54545,5.03624 z M 17.686384,27.13424 C 9.2428941,23.24802 2.3626641,14.95777 0.4375841,6.35049 -0.0728559,4.06826 -0.1477559,1.64644 0.2711341,0.96866 2.0102941,-1.84536 16.284794,3.68395 20.230424,8.7 c 1.79528,2.28233 1.79528,2.28233 4.48186,-3.20883 C 26.189904,2.47102 27.779064,0 28.243754,0 c 2.09473,0 5.26943,7.41309 5.70114,13.31247 0.37275,5.09358 0.0421,6.98313 -1.87016,10.68753 -2.11227,4.09183 -2.68579,4.52292 -6.32297,4.75269 -2.29948,0.14526 -5.72831,-0.54279 -8.06538,-1.61845 z"
     id="path3262"
     inkscape:connector-curvature="0" />
  <path
     style="fill:#9052a3"
     d="m 68.660564,126.62294 c -0.29063,-0.75738 -0.38901,-3.56988 -0.21861,-6.25 0.30981,-4.87294 0.30981,-4.87294 4.63371,-5.18405 2.37815,-0.17111 4.96565,0.22149 5.75,0.87245 1.44195,1.1967 1.93618,7.44583 0.81911,10.35687 -0.79957,2.08364 -10.196,2.25878 -10.98421,0.20473 z m 15.19819,-7.20473 c -0.33385,-0.86998 -0.60699,-2.63318 -0.60699,-3.91821 0,-4.51912 0.98088,-5.5 5.5,-5.5 4.51912,0 5.5,0.98088 5.5,5.5 0,4.51912 -0.98088,5.5 -5.5,5.5 -2.9858,0 -4.47016,-0.47986 -4.89301,-1.58179 z m -30.89327,-0.0378 c -1.2072,-1.2072 -0.78919,-9.07745 0.53628,-10.09697 1.05946,-0.8149 2.81916,-0.8946 8.05226,-0.36466 0.44124,0.0447 0.66624,2.44374 0.5,5.33124 -0.30226,5.25 -0.30226,5.25 -4.33854,5.54705 -2.21995,0.16338 -4.35745,-0.0241 -4.75,-0.41666 z m 18.33196,-7.82535 c -2.84426,-3.42712 1.07853,-9.22068 4.70432,-6.9478 3.56834,2.23687 2.28475,8.39276 -1.75,8.39276 -0.96531,0 -2.29475,-0.65023 -2.95432,-1.44496 z m 14.88475,-5.13886 c -0.95288,-1.14815 -1.02584,-2.04215 -0.26526,-3.25 1.49134,-2.36833 4.48106,-2.68669 5.97999,-0.63678 2.77564,3.79592 -2.69958,7.51981 -5.71473,3.88678 z M 55.451764,105.8 c -2.99413,-2.99413 0.4054,-7.71959 4.07582,-5.66552 2.89227,1.6186 1.53511,6.86552 -1.77582,6.86552 -0.605,0 -1.64,-0.54 -2.3,-1.2 z m -23.13044,-3.73585 C 30.081404,100.64667 29.609604,89.629 31.655144,86.50712 33.099004,84.30351 34.006614,84 39.152374,84 c 7.11974,0 8.27841,1.11356 8.89498,8.54867 0.32774,3.95208 0.003,6.11026 -1.1958,7.93938 -1.44306,2.20238 -2.35167,2.51006 -7.37284,2.49664 -3.14982,-0.008 -6.37065,-0.42267 -7.15739,-0.92054 z m 38.68044,-4.14425 c -1.41647,-0.82502 -1.75,-2.42562 -1.75,-8.39816 0,-9.18847 1.06649,-10.52174 8.41644,-10.52174 7.30296,0 8.58356,1.61031 8.58356,10.79356 0,6.03177 -0.29933,7.29627 -1.93426,8.17126 -2.46497,1.31921 -11.02324,1.29034 -13.31574,-0.0449 z m -55.08333,-1.58657 c -0.36667,-0.36666 -0.66667,-3.01852 -0.66667,-5.89301 0,-5.72646 0.70737,-6.44032 6.38179,-6.44032 4.19025,0 5.61821,1.55504 5.61821,6.11821 0,6.10544 -0.67014,6.88179 -5.94032,6.88179 -2.59949,0 -5.02635,-0.3 -5.39301,-0.66667 z M 52.451764,92.8 c -0.67794,-0.67794 -1.2,-3.92551 -1.2,-7.46482 0,-6.97808 1.13971,-8.33518 7,-8.33518 5.86029,0 7,1.3571 7,8.33518 0,3.53931 -0.52206,6.78688 -1.2,7.46482 -0.66,0.66 -3.27,1.2 -5.8,1.2 -2.53,0 -5.14,-0.54 -5.8,-1.2 z M 18.494744,80.84298 c -2.89869,-2.89869 -0.30655,-7.27343 3.95198,-6.66974 1.90542,0.27011 2.30504,0.93354 2.30504,3.82676 0,2.99137 -0.36433,3.54258 -2.50702,3.79298 -1.37887,0.16113 -3.06637,-0.26637 -3.75,-0.95 z m 17.50288,-0.093 c -0.90002,-0.6875 -1.92912,-2.46485 -2.2869,-3.94968 -0.50445,-2.09348 -0.0778,-3.27233 1.89981,-5.25 1.40268,-1.40267 3.18509,-2.55032 3.96092,-2.55032 2.56152,0 6.68031,4.05237 6.68031,6.57258 0,4.97413 -6.33375,8.1721 -10.25414,5.17742 z m 37.90913,-5.57874 c -0.91025,-1.00579 -1.65499,-3.24541 -1.65499,-4.97693 0,-6.23038 8.03414,-8.12422 11.57028,-2.7274 4.00061,6.10571 -5.01932,13.11434 -9.91529,7.70435 z m -19.08356,-1.74269 c -2.08791,-2.08791 -1.98707,-4.74245 0.25731,-6.77358 2.3047,-2.08572 5.56186,-2.12153 7.59983,-0.0836 1.82683,1.82683 1.98822,3.78128 0.53625,6.49431 -1.2745,2.38142 -6.16346,2.59276 -8.39339,0.36283 z m -42.01473,-5.65108 c -1.98067,-2.82781 -2.10773,-13.64165 -0.19108,-16.26283 0.99257,-1.35742 3.01077,-1.9866 7.38792,-2.30321 5.14188,-0.37193 6.33106,-0.12685 8.13438,1.67647 1.73803,1.73803 2.11208,3.32433 2.11208,8.95709 0,8.82064 -1.28403,10.15499 -9.77204,10.15499 -5.18499,0 -6.35121,-0.33788 -7.67126,-2.22251 z m 24.1933,-4.75447 c -2.62624,-2.0706 -2.75,-2.56297 -2.75,-10.94061 0,-10.65487 1.12626,-12.17955 9.51045,-12.87483 7.3624,-0.61055 11.08248,1.02894 12.57139,5.54041 1.55603,4.71482 0.63607,15.96267 -1.47855,18.07729 -1.06344,1.06344 -3.89926,1.73802 -8.3565,1.98781 -5.75558,0.32256 -7.15081,0.0596 -9.49679,-1.79007 z m 23.87537,-4.5569 c -1.13278,-2.95199 -0.65202,-9.19911 0.80073,-10.40478 0.78435,-0.65096 3.37185,-1.04356 5.75,-0.87245 4.3239,0.31113 4.3239,0.31113 4.3239,6.31113 0,6 0,6 -5.12463,6.29791 -3.99907,0.23248 -5.26198,-0.06 -5.75,-1.33179 z M 16.267824,44.29328 C 12.509274,39.51506 15.466894,34 21.787904,34 c 5.89393,0 8.65642,6.80744 4.46386,11 -2.90628,2.90628 -7.39171,2.58878 -9.98394,-0.70672 z m 47.01601,-1.23335 c -1.64592,-3.07543 0.35863,-6.26908 3.68433,-5.86986 3.34865,0.40197 5.17674,3.16572 3.67762,5.55993 -1.64396,2.62555 -6.02398,2.80994 -7.36195,0.30993 z m -22.57752,-8.51448 c -2.60445,-2.60444 -3.24304,-7.20363 -1.46223,-10.53111 0.54578,-1.01979 2.54323,-2.36601 4.43877,-2.9916 2.78332,-0.91858 4.01214,-0.8449 6.3865,0.38293 3.34637,1.73048 4.18241,3.35032 4.18241,8.10354 0,6.69007 -8.66861,9.91309 -13.54545,5.03624 z M 17.686384,27.13424 C 9.2428941,23.24802 2.3626641,14.95777 0.4375841,6.35049 -0.0728559,4.06826 -0.1477559,1.64644 0.2711341,0.96866 2.0102941,-1.84536 16.284794,3.68395 20.230424,8.7 c 1.79528,2.28233 1.79528,2.28233 4.48186,-3.20883 C 26.189904,2.47102 27.779064,0 28.243754,0 c 2.09473,0 5.26943,7.41309 5.70114,13.31247 0.37275,5.09358 0.0421,6.98313 -1.87016,10.68753 -2.11227,4.09183 -2.68579,4.52292 -6.32297,4.75269 -2.29948,0.14526 -5.72831,-0.54279 -8.06538,-1.61845 z"
     id="path3260"
     inkscape:connector-curvature="0" />
  <path
     style="fill:#8d53a2"
     d="m 68.660564,126.62294 c -0.29063,-0.75738 -0.38901,-3.56988 -0.21861,-6.25 0.30981,-4.87294 0.30981,-4.87294 4.63371,-5.18405 2.37815,-0.17111 4.96565,0.22149 5.75,0.87245 1.44195,1.1967 1.93618,7.44583 0.81911,10.35687 -0.79957,2.08364 -10.196,2.25878 -10.98421,0.20473 z m 15.19819,-7.20473 c -0.33385,-0.86998 -0.60699,-2.63318 -0.60699,-3.91821 0,-4.51912 0.98088,-5.5 5.5,-5.5 4.51912,0 5.5,0.98088 5.5,5.5 0,4.51912 -0.98088,5.5 -5.5,5.5 -2.9858,0 -4.47016,-0.47986 -4.89301,-1.58179 z m -30.89327,-0.0378 c -1.2072,-1.2072 -0.78919,-9.07745 0.53628,-10.09697 1.05946,-0.8149 2.81916,-0.8946 8.05226,-0.36466 0.44124,0.0447 0.66624,2.44374 0.5,5.33124 -0.30226,5.25 -0.30226,5.25 -4.33854,5.54705 -2.21995,0.16338 -4.35745,-0.0241 -4.75,-0.41666 z m 21.90547,-7.18753 c -0.42936,-0.69473 -0.19143,-3.61756 0.42272,-5.19286 0.10721,-0.275 0.11625,-0.91367 0.0201,-1.41927 -0.0962,-0.5056 0.513,-0.34841 1.3537,0.3493 1.37135,1.13812 1.37124,1.42589 -0.001,2.79822 -0.8413,0.84129 -1.29287,2.14661 -1.00351,2.90069 0.5697,1.4846 0.0193,1.87652 -0.79191,0.56392 z M 72.267074,110.75 c -0.008,-0.9625 -0.57781,-1.78553 -1.26531,-1.82895 -0.92903,-0.0587 -0.94346,-0.20365 -0.0562,-0.56461 0.65661,-0.26711 1.06786,-1.01908 0.9139,-1.67105 -0.15396,-0.65196 -0.0902,-0.84509 0.14159,-0.42916 0.23183,0.41593 0.94558,0.44205 1.5861,0.058 0.72083,-0.43215 0.67239,-0.0905 -0.12715,0.89653 -0.79202,0.97778 -0.90113,1.72904 -0.28204,1.94195 0.65162,0.22411 0.67185,0.8792 0.0571,1.84725 -0.81251,1.27936 -0.9549,1.24258 -0.96796,-0.25 z m 14.28626,-4.43118 c -0.90243,-0.33969 -0.92453,-1.05222 -0.0895,-2.88496 0.60992,-1.33862 1.51327,-2.43386 2.00744,-2.43386 0.49418,0 0.60179,0.4801 0.23913,1.06688 -0.39102,0.63269 0.0515,0.93792 1.08724,0.75 0.96064,-0.17428 1.96205,0.30187 2.22536,1.05812 0.2925,0.8401 -0.0562,1.19497 -0.89626,0.91223 -0.75625,-0.25452 -1.825,0.0875 -2.375,0.75997 -0.55,0.6725 -1.53929,1.01973 -2.19843,0.77162 z m -31.3849,-0.40215 c -0.55856,-2.79279 -0.35934,-4.59216 0.51273,-4.63089 0.58883,-0.0262 1.93192,-0.40263 2.98464,-0.83661 1.35014,-0.55658 1.70102,-0.44436 1.19099,0.38089 -0.39769,0.64347 -0.24651,1.16994 0.33595,1.16994 0.58246,0 1.05902,0.47656 1.05902,1.05902 0,0.58246 -0.52647,0.73364 -1.16994,0.33595 -0.78665,-0.48618 -0.96074,-0.1779 -0.53138,0.94099 0.35384,0.9221 0.15467,1.66404 -0.4467,1.66404 -0.60296,0 -0.84618,-0.91418 -0.5473,-2.0571 0.34224,-1.30871 0.11181,-1.91506 -0.63337,-1.66667 -0.64422,0.21474 -1.17131,0.87794 -1.17131,1.47377 0,1.05594 -1.41752,2.99571 -1.58333,2.16667 z m -22.84711,-3.85252 C 30.081404,100.64667 29.609604,89.629 31.655144,86.50712 33.099004,84.30351 34.006614,84 39.152374,84 c 7.11974,0 8.27841,1.11356 8.89498,8.54867 0.32774,3.95208 0.003,6.11026 -1.1958,7.93938 -1.44306,2.20238 -2.35167,2.51006 -7.37284,2.49664 -3.14982,-0.008 -6.37065,-0.42267 -7.15739,-0.92054 z m 38.68044,-4.14425 c -1.41647,-0.82502 -1.75,-2.42562 -1.75,-8.39816 0,-9.18847 1.06649,-10.52174 8.41644,-10.52174 7.30296,0 8.58356,1.61031 8.58356,10.79356 0,6.03177 -0.29933,7.29627 -1.93426,8.17126 -2.46497,1.31921 -11.02324,1.29034 -13.31574,-0.0449 z m -55.08333,-1.58657 c -0.36667,-0.36666 -0.66667,-3.01852 -0.66667,-5.89301 0,-5.72646 0.70737,-6.44032 6.38179,-6.44032 4.19025,0 5.61821,1.55504 5.61821,6.11821 0,6.10544 -0.67014,6.88179 -5.94032,6.88179 -2.59949,0 -5.02635,-0.3 -5.39301,-0.66667 z M 52.451764,92.8 c -0.67794,-0.67794 -1.2,-3.92551 -1.2,-7.46482 0,-6.97808 1.13971,-8.33518 7,-8.33518 5.86029,0 7,1.3571 7,8.33518 0,3.53931 -0.52206,6.78688 -1.2,7.46482 -0.66,0.66 -3.27,1.2 -5.8,1.2 -2.53,0 -5.14,-0.54 -5.8,-1.2 z M 19.091734,80.28145 c -1.28698,-0.76186 -1.66497,-1.19558 -0.83997,-0.96382 0.825,0.23177 2.4,-0.29545 3.5,-1.17158 1.23392,-0.98281 1.5212,-1.04774 0.75,-0.16952 -1.45828,1.66065 -1.67509,3.40422 -0.3191,2.56618 0.512,-0.31644 1.1672,-0.19299 1.45601,0.27431 0.81909,1.32531 -1.95553,0.9985 -4.54694,-0.53557 z m 18.70684,0.75004 c -1.61659,-0.57954 -1.37364,-0.81612 1.40972,-1.3728 1.8496,-0.36992 3.59104,-0.44445 3.86986,-0.16563 C 43.356974,79.77187 42.872594,80 42.001764,80 c -0.87083,0 -1.73333,0.38963 -1.91667,0.86585 -0.18333,0.47621 -1.21227,0.55075 -2.28652,0.16564 z m 4.93477,-5.94764 c 0.48549,-2.2104 0.2022,-3.1711 -1.17054,-3.96959 -1.55891,-0.90678 -1.58342,-1.05768 -0.17605,-1.08385 0.89924,-0.0167 2.40842,1.15 3.35373,2.59271 0.9453,1.44272 1.22206,2.31616 0.61501,1.94099 -0.63127,-0.39015 -1.10373,0.0105 -1.10373,0.93589 0,0.88992 0.45,1.33992 1,1 0.55,-0.33992 1,-0.14148 1,0.44098 0,0.58246 -0.93575,1.05902 -2.07946,1.05902 -1.77697,0 -1.98628,-0.42418 -1.43896,-2.91615 z m -5.03543,0.82902 c -0.36954,-0.59793 -0.15236,-1.60666 0.48262,-2.24164 0.87268,-0.87268 1.37235,-0.80204 2.04689,0.28938 0.95311,1.54218 0.4725,3.03939 -0.97566,3.03939 -0.48508,0 -1.18431,-0.48921 -1.55385,-1.08713 z m 36.85915,-1.97232 C 74.881694,72.69914 74.557834,72 73.658144,72 c -1.6983,0 -1.85408,-1.60527 -0.25187,-2.59549 0.7153,-0.44208 0.88306,-0.27432 0.44098,0.44098 C 73.454814,70.48047 73.583734,71 74.133734,71 c 1.49386,0 2.3,-1.7695 1.13434,-2.48992 -0.55897,-0.34546 -1.01631,-1.12656 -1.01631,-1.73576 0,-0.60921 0.2961,-0.81156 0.65799,-0.44966 0.3619,0.36189 1.2619,0.15679 2,-0.45578 0.98712,-0.81924 1.34201,-0.81694 1.34201,0.009 0,0.61734 -0.35357,1.12244 -0.78571,1.12244 -0.43215,0 -0.78572,0.91114 -0.78572,2.02476 0,1.27973 0.49221,1.83588 1.33765,1.51145 0.73571,-0.28231 1.06273,-0.0685 0.7267,0.47524 -0.33602,0.5437 -0.0969,0.98855 0.5314,0.98855 2.18974,0 0.32472,2.39648 -2.44056,3.13603 -2.43137,0.65025 -2.72135,0.4981 -2.27846,-1.19548 z m 4.6947,-0.40537 c 0,-0.25565 -0.825,-0.90634 -1.83333,-1.44598 -1.38489,-0.74117 -1.83334,-0.62748 -1.83334,0.46481 0,0.7953 0.825,1.44599 1.83334,1.44599 1.00833,0 1.83333,-0.20917 1.83333,-0.46482 z m -21.83385,0.58867 c -1.11179,-0.70476 -1.11179,-0.93073 0,-1.35737 0.73362,-0.28151 1.78385,-0.6074 2.33385,-0.7242 0.55,-0.11679 1.5625,-0.67919 2.25,-1.24976 0.91265,-0.75743 1.25,-0.59954 1.25,0.58504 0,1.57898 -1.09012,2.05294 -3.85035,1.67404 -0.7427,-0.10195 -1.05364,0.29473 -0.69099,0.88152 0.78878,1.27626 0.48961,1.32041 -1.29251,0.19073 z M 81.909504,74.25 c -0.68521,-1.1165 -0.0132,-7.23951 0.88335,-8.04843 0.42766,-0.38586 0.49499,0.0859 0.14962,1.04843 -0.37685,1.05023 -0.14066,1.75612 0.59067,1.76531 0.77072,0.01 0.6673,0.37161 -0.28138,0.98469 -1.33333,0.86167 -1.33333,0.97985 0,1.06363 0.9464,0.0595 1.0594,0.27351 0.30618,0.57993 -0.65661,0.26711 -0.94596,1.13158 -0.64301,1.92105 0.57036,1.48634 -0.19406,2.00744 -1.00543,0.68539 z M 35.751764,71 c 0.33992,-0.55 1.26648,-1 2.05902,-1 0.79254,0 1.44098,0.45 1.44098,1 0,0.55 -0.92656,1 -2.05902,1 -1.13246,0 -1.7809,-0.45 -1.44098,-1 z m 19.83333,-1.5 c 0,-0.825 0.375,-1.5 0.83334,-1.5 0.45833,0 0.72083,-0.55182 0.58333,-1.22626 -0.1375,-0.67444 0.875,-1.32764 2.25,-1.45155 2.5,-0.2253 2.5,-0.2253 0,0.54982 -2.5,0.77513 -2.5,0.77513 -0.25,1.51895 1.2375,0.4091 2.25,1.4745 2.25,2.36756 0,1.35021 -0.24066,1.29674 -1.42858,-0.31739 -1.33135,-1.80902 -1.47475,-1.82202 -2.10699,-0.19113 -0.8309,2.14337 -2.1311,2.29589 -2.1311,0.25 z m -42.77663,-1.72251 c -1.98067,-2.82781 -2.10773,-13.64165 -0.19108,-16.26283 0.99257,-1.35742 3.01077,-1.9866 7.38792,-2.30321 5.14188,-0.37193 6.33106,-0.12685 8.13438,1.67647 1.73803,1.73803 2.11208,3.32433 2.11208,8.95709 0,8.82064 -1.28403,10.15499 -9.77204,10.15499 -5.18499,0 -6.35121,-0.33788 -7.67126,-2.22251 z m 24.1933,-4.75447 c -2.62624,-2.0706 -2.75,-2.56297 -2.75,-10.94061 0,-10.65487 1.12626,-12.17955 9.51045,-12.87483 7.3624,-0.61055 11.08248,1.02894 12.57139,5.54041 1.55603,4.71482 0.63607,15.96267 -1.47855,18.07729 -1.06344,1.06344 -3.89926,1.73802 -8.3565,1.98781 -5.75558,0.32256 -7.15081,0.0596 -9.49679,-1.79007 z m 23.87537,-4.5569 c -1.13278,-2.95199 -0.65202,-9.19911 0.80073,-10.40478 0.78435,-0.65096 3.37185,-1.04356 5.75,-0.87245 4.3239,0.31111 4.3239,0.31111 4.3239,6.31111 0,6 0,6 -5.12463,6.29791 -3.99907,0.23248 -5.26198,-0.06 -5.75,-1.33179 z M 17.124204,45.30804 c -0.93255,-1.14966 -0.9718,-1.45126 -0.12244,-0.94098 0.78222,0.46994 1.25,0.1793 1.25,-0.77666 0,-1.00693 -0.59649,-1.33194 -1.75,-0.9535 -0.98219,0.32223 -0.3354,-0.72661 1.47418,-2.39054 1.77331,-1.63056 2.89831,-3.32519 2.5,-3.76583 -0.3983,-0.44065 -0.1585,-0.47551 0.53288,-0.0775 0.73355,0.42231 1.50599,0.075 1.85479,-0.83393 0.61973,-1.615 2.38815,-1.20853 2.38815,0.5489 0,0.55 -0.38114,0.76445 -0.84698,0.47654 -1.53528,-0.94886 -5.71126,4.782 -5.57837,7.65543 0.07,1.5125 0.0244,2.75 -0.10129,2.75 -0.12566,0 -0.84607,-0.76138 -1.60092,-1.69196 z m 3.98132,0.36817 c 0.73008,-0.87969 0.76425,-1.6582 0.10186,-2.32059 -0.66239,-0.66239 0.18428,-2.07155 2.52379,-4.20046 1.93633,-1.76201 3.52059,-2.74275 3.52059,-2.17941 0,1.92987 -0.442,2.524 -1.66822,2.24241 -0.67503,-0.15502 -1.74252,0.68079 -2.37219,1.85736 -0.86106,1.60889 -0.85932,2.42246 0.007,3.28184 0.86581,0.85885 1.01561,0.7701 0.60315,-0.35736 -0.70369,-1.92354 1.34137,-5.09483 2.09179,-3.24377 0.2801,0.69093 0.99037,0.9589 1.57838,0.59549 0.63721,-0.39382 0.77678,-0.18776 0.34549,0.51008 -0.39798,0.64395 -1.09135,0.94354 -1.54082,0.66576 -0.44946,-0.27779 -1.06308,0.43515 -1.36359,1.5843 -0.30056,1.14932 -1.02659,1.79259 -1.61369,1.42974 -0.58701,-0.3628 -1.0673,-0.18308 -1.0673,0.39938 0,0.58246 -0.5051,1.05902 -1.12244,1.05902 -0.81795,0 -0.8244,-0.35912 -0.0238,-1.32379 z m 46.67625,-2.62765 C 67.425354,42.47185 67.636844,42 68.251764,42 c 0.61492,0 0.83992,-0.45 0.5,-1 -0.33992,-0.55 -0.16803,-1 0.38197,-1 1.74052,0 2.15036,1.72828 0.69605,2.93525 -0.95834,0.79535 -1.60439,0.8311 -2.04801,0.11331 z m -3.45612,-3.45953 c -0.80051,-0.96456 -0.83925,-1.61601 -0.12245,-2.05902 0.57671,-0.35642 1.04856,-0.39649 1.04856,-0.089 0,1.52512 0.28637,2.11972 1.34549,2.79371 0.83256,0.52981 0.84007,0.73895 0.0269,0.75 -0.62015,0.008 -1.6545,-0.61963 -2.29855,-1.39566 z m -48.74056,-1.08487 c 0,-0.82729 0.21801,-1.28615 0.48446,-1.0197 0.26645,0.26645 1.07714,-0.29605 1.80153,-1.25 0.72439,-0.95395 1.33138,-1.2417 1.34888,-0.63945 0.0175,0.60226 -0.7932,1.84163 -1.80153,2.75416 -1.56319,1.41466 -1.83334,1.4375 -1.83334,0.15499 z m 29.15659,-5.52047 c -0.34546,-0.55897 -1.15952,-0.71183 -1.80902,-0.33968 -0.64949,0.37215 -0.8473,0.3084 -0.43958,-0.14168 0.40773,-0.45007 0.24013,-1.42222 -0.37244,-2.16032 C 41.290344,29.34156 41.323714,29 42.251764,29 c 0.97082,0 0.95928,-0.34414 -0.0524,-1.56319 -1.17615,-1.41717 -1.37946,-1.41643 -2.17657,0.008 -0.48358,0.86411 -0.62254,1.98645 -0.3088,2.49409 0.31374,0.50764 0.1751,1.16731 -0.30809,1.46594 -0.48319,0.29863 -0.77296,-0.45778 -0.64393,-1.6809 0.12902,-1.22312 0.29201,-2.83451 0.36221,-3.58085 0.073,-0.77594 0.7699,-1.11052 1.62762,-0.78138 0.825,0.31658 1.5,0.17722 1.5,-0.30968 0,-0.48691 -0.53975,-1.0652 -1.19944,-1.2851 -0.72153,-0.24051 -0.47475,-0.6779 0.61933,-1.09774 1.51815,-0.58257 1.74037,-0.28777 1.34441,1.78353 -0.31074,1.62554 0.23991,3.24813 1.59644,4.70419 1.67966,1.80291 1.74672,2.09838 0.35503,1.56434 -3.08528,-1.18393 -1.79889,0.23675 1.53423,1.69439 2.69068,1.17669 2.87294,1.43533 1.05902,1.50287 -1.20504,0.0449 -2.47364,-0.37577 -2.8191,-0.93474 z m -27.0553,-5.84945 C 9.2428941,23.24802 2.3626641,14.95777 0.4375841,6.35049 -0.0728559,4.06826 -0.1477559,1.64644 0.2711341,0.96866 2.0102941,-1.84536 16.284794,3.68395 20.230424,8.7 c 1.79528,2.28233 1.79528,2.28233 4.48186,-3.20883 C 26.189904,2.47102 27.779064,0 28.243754,0 c 2.09473,0 5.26943,7.41309 5.70114,13.31247 0.37275,5.09358 0.0421,6.98313 -1.87016,10.68753 -2.11227,4.09183 -2.68579,4.52292 -6.32297,4.75269 -2.29948,0.14526 -5.72831,-0.54279 -8.06538,-1.61845 z"
     id="path3258"
     inkscape:connector-curvature="0" />
  <path
     style="fill:#85a452"
     d="m 68.660564,126.62294 c -0.29063,-0.75738 -0.38901,-3.56988 -0.21861,-6.25 0.30981,-4.87294 0.30981,-4.87294 4.63371,-5.18405 2.37815,-0.17111 4.96565,0.22149 5.75,0.87245 1.44195,1.1967 1.93618,7.44583 0.81911,10.35687 -0.79957,2.08364 -10.196,2.25878 -10.98421,0.20473 z m 15.19819,-7.20473 c -0.33385,-0.86998 -0.60699,-2.63318 -0.60699,-3.91821 0,-4.51912 0.98088,-5.5 5.5,-5.5 4.51912,0 5.5,0.98088 5.5,5.5 0,4.51912 -0.98088,5.5 -5.5,5.5 -2.9858,0 -4.47016,-0.47986 -4.89301,-1.58179 z m -30.89327,-0.0378 c -1.2072,-1.2072 -0.78919,-9.07745 0.53628,-10.09697 1.05946,-0.8149 2.81916,-0.8946 8.05226,-0.36466 0.44124,0.0447 0.66624,2.44374 0.5,5.33124 -0.30226,5.25 -0.30226,5.25 -4.33854,5.54705 -2.21995,0.16338 -4.35745,-0.0241 -4.75,-0.41666 z m -20.64416,-17.31624 c -2.23992,-1.41748 -2.71172,-12.43515 -0.66618,-15.55703 1.44386,-2.20361 2.35147,-2.50712 7.49723,-2.50712 7.11974,0 8.27841,1.11356 8.89498,8.54867 0.32774,3.95208 0.003,6.11026 -1.1958,7.93938 -1.44306,2.20238 -2.35167,2.51006 -7.37284,2.49664 -3.14982,-0.008 -6.37065,-0.42267 -7.15739,-0.92054 z m 38.68044,-4.14427 c -1.41647,-0.82502 -1.75,-2.42562 -1.75,-8.39816 0,-9.18847 1.06649,-10.52174 8.41644,-10.52174 7.30296,0 8.58356,1.61031 8.58356,10.79356 0,6.03177 -0.29933,7.29627 -1.93426,8.17126 -2.46497,1.31921 -11.02324,1.29034 -13.31574,-0.0449 z m -55.08333,-1.58657 c -0.36667,-0.36666 -0.66667,-3.01852 -0.66667,-5.89301 0,-5.72646 0.70737,-6.44032 6.38179,-6.44032 4.19025,0 5.61821,1.55504 5.61821,6.11821 0,6.10544 -0.67014,6.88179 -5.94032,6.88179 -2.59949,0 -5.02635,-0.3 -5.39301,-0.66667 z M 52.451764,92.8 c -0.67794,-0.67794 -1.2,-3.92551 -1.2,-7.46482 0,-6.97808 1.13971,-8.33518 7,-8.33518 5.86029,0 7,1.3571 7,8.33518 0,3.53931 -0.52206,6.78688 -1.2,7.46482 -0.66,0.66 -3.27,1.2 -5.8,1.2 -2.53,0 -5.14,-0.54 -5.8,-1.2 z m -39.6433,-25.02251 c -1.98067,-2.82781 -2.10773,-13.64165 -0.19108,-16.26283 0.99257,-1.35742 3.01077,-1.9866 7.38792,-2.30321 5.14188,-0.37193 6.33106,-0.12685 8.13438,1.67647 1.73803,1.73803 2.11208,3.32433 2.11208,8.95709 0,8.82064 -1.28403,10.15499 -9.77204,10.15499 -5.18499,0 -6.35121,-0.33788 -7.67126,-2.22251 z m 24.1933,-4.75447 c -2.62624,-2.0706 -2.75,-2.56297 -2.75,-10.94061 0,-10.65487 1.12626,-12.17955 9.51045,-12.87483 7.3624,-0.61055 11.08248,1.02894 12.57139,5.54041 1.55603,4.71482 0.63607,15.96267 -1.47855,18.07729 -1.06344,1.06344 -3.89926,1.73802 -8.3565,1.98781 -5.75558,0.32256 -7.15081,0.0596 -9.49679,-1.79007 z m 23.87537,-4.5569 c -1.13278,-2.95199 -0.65202,-9.19911 0.80073,-10.40478 0.78435,-0.65096 3.37185,-1.04356 5.75,-0.87245 4.3239,0.31111 4.3239,0.31111 4.3239,6.31111 0,6 0,6 -5.12463,6.29791 -3.99907,0.23248 -5.26198,-0.06 -5.75,-1.33179 z M 17.686384,27.13424 C 9.2428941,23.24802 2.3626641,14.95777 0.4375841,6.35049 -0.0728559,4.06826 -0.1477559,1.64644 0.2711341,0.96866 2.0102941,-1.84536 16.284794,3.68395 20.230424,8.7 c 1.79528,2.28233 1.79528,2.28233 4.48186,-3.20883 C 26.189904,2.47102 27.779064,0 28.243754,0 c 2.09473,0 5.26943,7.41309 5.70114,13.31247 0.37275,5.09358 0.0421,6.98313 -1.87016,10.68753 -2.11227,4.09183 -2.68579,4.52292 -6.32297,4.75269 -2.29948,0.14526 -5.72831,-0.54279 -8.06538,-1.61845 z"
     id="path3256"
     inkscape:connector-curvature="0" />
  <path
     style="fill:#855893"
     d="m 68.660564,126.62294 c -0.29063,-0.75738 -0.38901,-3.56988 -0.21861,-6.25 0.30981,-4.87294 0.30981,-4.87294 4.63371,-5.18405 2.37815,-0.17111 4.96565,0.22149 5.75,0.87245 1.44195,1.1967 1.93618,7.44583 0.81911,10.35687 -0.79957,2.08364 -10.196,2.25878 -10.98421,0.20473 z m 15.19819,-7.20473 c -0.33385,-0.86998 -0.60699,-2.63318 -0.60699,-3.91821 0,-4.51912 0.98088,-5.5 5.5,-5.5 4.51912,0 5.5,0.98088 5.5,5.5 0,4.51912 -0.98088,5.5 -5.5,5.5 -2.9858,0 -4.47016,-0.47986 -4.89301,-1.58179 z m -30.89327,-0.0378 c -1.2072,-1.2072 -0.78919,-9.07745 0.53628,-10.09697 1.05946,-0.8149 2.81916,-0.8946 8.05226,-0.36466 0.44124,0.0447 0.66624,2.44374 0.5,5.33124 -0.30226,5.25 -0.30226,5.25 -4.33854,5.54705 -2.21995,0.16338 -4.35745,-0.0241 -4.75,-0.41666 z m -20.64416,-17.31624 c -2.23992,-1.41748 -2.71172,-12.43515 -0.66618,-15.55703 1.44386,-2.20361 2.35147,-2.50712 7.49723,-2.50712 7.11974,0 8.27841,1.11356 8.89498,8.54867 0.32774,3.95208 0.003,6.11026 -1.1958,7.93938 -1.44306,2.20238 -2.35167,2.51006 -7.37284,2.49664 -3.14982,-0.008 -6.37065,-0.42267 -7.15739,-0.92054 z m 38.68044,-4.14427 c -1.41647,-0.82502 -1.75,-2.42562 -1.75,-8.39816 0,-9.18847 1.06649,-10.52174 8.41644,-10.52174 7.30296,0 8.58356,1.61031 8.58356,10.79356 0,6.03177 -0.29933,7.29627 -1.93426,8.17126 -2.46497,1.31921 -11.02324,1.29034 -13.31574,-0.0449 z m -55.08333,-1.58657 c -0.36667,-0.36666 -0.66667,-3.01852 -0.66667,-5.89301 0,-5.72646 0.70737,-6.44032 6.38179,-6.44032 4.19025,0 5.61821,1.55504 5.61821,6.11821 0,6.10544 -0.67014,6.88179 -5.94032,6.88179 -2.59949,0 -5.02635,-0.3 -5.39301,-0.66667 z M 52.451764,92.8 c -0.67794,-0.67794 -1.2,-3.92551 -1.2,-7.46482 0,-6.97808 1.13971,-8.33518 7,-8.33518 5.86029,0 7,1.3571 7,8.33518 0,3.53931 -0.52206,6.78688 -1.2,7.46482 -0.66,0.66 -3.27,1.2 -5.8,1.2 -2.53,0 -5.14,-0.54 -5.8,-1.2 z m -39.6433,-25.02251 c -1.98067,-2.82781 -2.10773,-13.64165 -0.19108,-16.26283 0.99257,-1.35742 3.01077,-1.9866 7.38792,-2.30321 5.14188,-0.37193 6.33106,-0.12685 8.13438,1.67647 1.73803,1.73803 2.11208,3.32433 2.11208,8.95709 0,8.82064 -1.28403,10.15499 -9.77204,10.15499 -5.18499,0 -6.35121,-0.33788 -7.67126,-2.22251 z m 24.1933,-4.75447 c -2.62624,-2.0706 -2.75,-2.56297 -2.75,-10.94061 0,-10.65487 1.12626,-12.17955 9.51045,-12.87483 7.3624,-0.61055 11.08248,1.02894 12.57139,5.54041 1.55603,4.71482 0.63607,15.96267 -1.47855,18.07729 -1.06344,1.06344 -3.89926,1.73802 -8.3565,1.98781 -5.75558,0.32256 -7.15081,0.0596 -9.49679,-1.79007 z m 23.87537,-4.5569 c -1.13278,-2.95199 -0.65202,-9.19911 0.80073,-10.40478 0.78435,-0.65096 3.37185,-1.04356 5.75,-0.87245 4.3239,0.31111 4.3239,0.31111 4.3239,6.31111 0,6 0,6 -5.12463,6.29791 -3.99907,0.23248 -5.26198,-0.06 -5.75,-1.33179 z M 19.751764,27.79345 c -3.51583,-1.22897 -9.02675,-5.13199 -12.3438899,-8.74236 -3.33831,-3.63341 -7.13487,-11.99449 -7.14634,-15.73822 -0.01,-3.12083 0.0682,-3.17503 3.74023,-2.60554 5.68632,0.88189 11.8829799,4.11063 15.2507999,7.94636 2.60998,2.97261 3.10392,3.19802 3.60548,1.6454 2.76719,-8.56593 4.49238,-10.42477 7.30927,-7.87552 1.90531,1.72428 4.08905,8.56066 4.07887,12.76925 -0.01,3.92986 -2.03191,9.84467 -4.05935,11.87211 -2.10996,2.10996 -5.75503,2.36444 -10.43507,0.72852 z"
     id="path3254"
     inkscape:connector-curvature="0" />
  <path
     style="fill:#7ea049"
     d="m 68.660564,126.62294 c -0.29063,-0.75738 -0.38901,-3.56988 -0.21861,-6.25 0.30981,-4.87294 0.30981,-4.87294 4.77355,-5.19088 5.10035,-0.36329 7.03626,1.3081 7.03626,6.07481 0,5.12737 -1.57345,6.74313 -6.56657,6.74313 -2.89573,0 -4.6843,-0.49018 -5.02463,-1.37706 z M 84.147424,120.25 c -0.63523,-4.56621 -0.34293,-8.46383 0.69962,-9.32907 0.70074,-0.58157 2.76597,-0.91419 4.5894,-0.73916 3.24749,0.31172 3.3215,0.42564 3.61758,5.56823 0.30226,5.25 0.30226,5.25 -4.25,5.25 -2.50374,0 -4.59921,-0.3375 -4.6566,-0.75 z m -31.47144,-1.58689 c -0.30662,-0.79903 -0.415,-3.18761 -0.24085,-5.30795 0.31663,-3.85516 0.31663,-3.85516 4.81663,-3.85516 4.5,0 4.5,0 4.5,5 0,5 0,5 -4.25915,5.30794 -3.01706,0.21814 -4.42173,-0.11572 -4.81663,-1.14483 z m -21.02401,-18.17506 c -2.24444,-3.42545 -1.51097,-13.20267 1.13562,-15.13791 2.1834,-1.59654 9.77853,-1.78745 12.52991,-0.31496 1.63985,0.87762 1.93426,2.14095 1.93426,8.3 0,4.31708 -0.48691,7.75173 -1.2,8.46482 -0.66,0.66 -3.79963,1.2 -6.97695,1.2 -5.06592,0 -5.97952,-0.30917 -7.42284,-2.51195 z m 39.17122,-3.05948 c -1.12367,-1.12367 -1.57143,-3.52948 -1.57143,-8.44329 0,-5.96758 0.29247,-7.07672 2.22251,-8.42858 1.22237,-0.85618 4.04725,-1.5567 6.27749,-1.5567 2.23024,0 5.05512,0.70052 6.27749,1.5567 1.93004,1.35186 2.22251,2.461 2.22251,8.42858 0,8.65526 -1.15384,10.01472 -8.5,10.01472 -3.5368,0 -5.89111,-0.53397 -6.92857,-1.57143 z m -54.90476,-1.09524 c -1.14565,-1.14564 -0.7276,-9.8724 0.53333,-11.13333 0.66,-0.66 2.89417,-1.2 4.96482,-1.2 2.6987,0 4.05795,0.54774 4.8,1.93426 1.40474,2.62479 1.30839,8.39253 -0.16482,9.86574 -1.2649,1.2649 -8.99493,1.67174 -10.13333,0.53333 z m 37.08333,-3.41343 c -1.37888,-0.80312 -1.75,-2.37973 -1.75,-7.43441 0,-5.39586 0.31839,-6.58552 2.00393,-7.48759 1.95405,-1.04578 9.01747,-0.72074 11.0029,0.50632 0.54624,0.3376 0.99317,3.49642 0.99317,7.01961 0,5.30977 -0.33095,6.58292 -1.93426,7.44099 -2.44939,1.31087 -8.02971,1.28657 -10.31574,-0.0449 z m -40.1933,-25.14241 c -0.97625,-1.3938 -1.5567,-4.39369 -1.5567,-8.04545 0,-4.9215 0.39823,-6.22118 2.57237,-8.39532 2.29742,-2.29742 3.16855,-2.52294 8.14986,-2.10985 3.88643,0.32229 5.98684,1.02235 6.92763,2.30896 1.9016,2.60059 1.76389,13.42845 -0.20656,16.24166 C 27.362724,69.67967 26.217874,70 20.751764,70 c -5.46611,0 -6.61096,-0.32033 -7.9433,-2.22251 z m 25.75867,-3.78447 c -3.32847,-1.34107 -4.31537,-4.15778 -4.31537,-12.31649 0,-10.48283 1.23664,-11.84158 10.81757,-11.88573 10.25756,-0.0473 11.18699,0.96098 11.16712,12.11419 -0.008,4.72725 -0.35508,9.12936 -0.77035,9.78245 -1.86681,2.93589 -11.92773,4.30854 -16.89897,2.30558 z m 22.92942,-5.14823 c -1.51087,-1.51087 -1.6323,-7.2522 -0.20961,-9.91053 C 62.034674,47.53712 63.389114,47 66.164504,47 c 2.1133,0 4.37355,0.64004 5.02278,1.42231 0.66053,0.79588 1.04477,3.54853 0.87244,6.25 -0.30796,4.82769 -0.30796,4.82769 -4.81317,5.12248 -2.63903,0.17269 -5.02083,-0.22083 -5.75,-0.95 z M 19.751764,27.79345 c -3.51583,-1.22897 -9.02675,-5.13199 -12.3438899,-8.74236 -3.33831,-3.63341 -7.13487,-11.99449 -7.14634,-15.73822 -0.01,-3.12083 0.0682,-3.17503 3.74023,-2.60554 5.68632,0.88189 11.8829799,4.11063 15.2507999,7.94636 2.60998,2.97261 3.10392,3.19802 3.60548,1.6454 2.76719,-8.56593 4.49238,-10.42477 7.30927,-7.87552 1.90531,1.72428 4.08905,8.56066 4.07887,12.76925 -0.01,3.92986 -2.03191,9.84467 -4.05935,11.87211 -2.10996,2.10996 -5.75503,2.36444 -10.43507,0.72852 z"
     id="path3252"
     inkscape:connector-curvature="0" />
  <path
     style="fill:#784888"
     d="m 68.660564,126.62294 c -0.29063,-0.75738 -0.38901,-3.56988 -0.21861,-6.25 0.30981,-4.87294 0.30981,-4.87294 4.77355,-5.19088 5.10035,-0.36329 7.03626,1.3081 7.03626,6.07481 0,5.12737 -1.57345,6.74313 -6.56657,6.74313 -2.89573,0 -4.6843,-0.49018 -5.02463,-1.37706 z M 84.147424,120.25 c -0.63523,-4.56621 -0.34293,-8.46383 0.69962,-9.32907 0.70074,-0.58157 2.76597,-0.91419 4.5894,-0.73916 3.24749,0.31172 3.3215,0.42564 3.61758,5.56823 0.30226,5.25 0.30226,5.25 -4.25,5.25 -2.50374,0 -4.59921,-0.3375 -4.6566,-0.75 z m -31.47144,-1.58689 c -0.30662,-0.79903 -0.415,-3.18761 -0.24085,-5.30795 0.31663,-3.85516 0.31663,-3.85516 4.81663,-3.85516 4.5,0 4.5,0 4.5,5 0,5 0,5 -4.25915,5.30794 -3.01706,0.21814 -4.42173,-0.11572 -4.81663,-1.14483 z m -21.02401,-18.17506 c -2.24444,-3.42545 -1.51097,-13.20267 1.13562,-15.13791 2.1834,-1.59654 9.77853,-1.78745 12.52991,-0.31496 1.63985,0.87762 1.93426,2.14095 1.93426,8.3 0,4.31708 -0.48691,7.75173 -1.2,8.46482 -0.66,0.66 -3.79963,1.2 -6.97695,1.2 -5.06592,0 -5.97952,-0.30917 -7.42284,-2.51195 z m 39.17122,-3.05948 c -1.12367,-1.12367 -1.57143,-3.52948 -1.57143,-8.44329 0,-5.96758 0.29247,-7.07672 2.22251,-8.42858 1.22237,-0.85618 4.04725,-1.5567 6.27749,-1.5567 2.23024,0 5.05512,0.70052 6.27749,1.5567 1.93004,1.35186 2.22251,2.461 2.22251,8.42858 0,8.65526 -1.15384,10.01472 -8.5,10.01472 -3.5368,0 -5.89111,-0.53397 -6.92857,-1.57143 z m -54.90476,-1.09524 c -1.14565,-1.14564 -0.7276,-9.8724 0.53333,-11.13333 0.66,-0.66 2.89417,-1.2 4.96482,-1.2 2.6987,0 4.05795,0.54774 4.8,1.93426 1.40474,2.62479 1.30839,8.39253 -0.16482,9.86574 -1.2649,1.2649 -8.99493,1.67174 -10.13333,0.53333 z m 37.08333,-3.41343 c -1.37888,-0.80312 -1.75,-2.37973 -1.75,-7.43441 0,-5.39586 0.31839,-6.58552 2.00393,-7.48759 1.95405,-1.04578 9.01747,-0.72074 11.0029,0.50632 0.54624,0.3376 0.99317,3.49642 0.99317,7.01961 0,5.30977 -0.33095,6.58292 -1.93426,7.44099 -2.44939,1.31087 -8.02971,1.28657 -10.31574,-0.0449 z m -40.1933,-25.14241 c -0.97625,-1.3938 -1.5567,-4.39369 -1.5567,-8.04545 0,-4.9215 0.39823,-6.22118 2.57237,-8.39532 2.29742,-2.29742 3.16855,-2.52294 8.14986,-2.10985 3.88643,0.32229 5.98684,1.02235 6.92763,2.30896 1.9016,2.60059 1.76389,13.42845 -0.20656,16.24166 C 27.362724,69.67967 26.217874,70 20.751764,70 c -5.46611,0 -6.61096,-0.32033 -7.9433,-2.22251 z m 25.75867,-3.78447 c -3.32847,-1.34107 -4.31537,-4.15778 -4.31537,-12.31649 0,-10.48283 1.23664,-11.84158 10.81757,-11.88573 10.25756,-0.0473 11.18699,0.96098 11.16712,12.11419 -0.008,4.72725 -0.35508,9.12936 -0.77035,9.78245 -1.86681,2.93589 -11.92773,4.30854 -16.89897,2.30558 z m 22.92942,-5.14823 c -1.51087,-1.51087 -1.6323,-7.2522 -0.20961,-9.91053 C 62.034674,47.53712 63.389114,47 66.164504,47 c 2.1133,0 4.37355,0.64004 5.02278,1.42231 0.66053,0.79588 1.04477,3.54853 0.87244,6.25 -0.30796,4.82769 -0.30796,4.82769 -4.81317,5.12248 -2.63903,0.17269 -5.02083,-0.22083 -5.75,-0.95 z M 27.747714,23.976 c -0.37392,-2.2132 -1.70961,-5.9607 -2.96819,-8.32777 -2.08658,-3.92432 -2.17258,-4.6405 -0.97536,-8.12298 0.72214,-2.10056 2.0473,-4.54056 2.9448,-5.42223 1.49922,-1.47276 1.78804,-1.41249 3.55426,0.74164 2.69963,3.29256 4.2607,9.86123 3.55944,14.97745 C 33.281814,22.05992 30.516234,28 29.124054,28 c -0.38307,0 -1.00243,-1.8108 -1.37634,-4.024 z"
     id="path3250"
     inkscape:connector-curvature="0" />
  <path
     style="fill:#678734"
     d="m 27.747714,23.976 c -0.37392,-2.2132 -1.70961,-5.9607 -2.96819,-8.32777 -2.08658,-3.92432 -2.17258,-4.6405 -0.97536,-8.12298 0.72214,-2.10056 2.0473,-4.54056 2.9448,-5.42223 1.49922,-1.47276 1.78804,-1.41249 3.55426,0.74164 2.69963,3.29256 4.2607,9.86123 3.55944,14.97745 C 33.281814,22.05992 30.516234,28 29.124054,28 c -0.38307,0 -1.00243,-1.8108 -1.37634,-4.024 z"
     id="path3248"
     inkscape:connector-curvature="0" />
  <path
     style="fill:#50701f"
     d="M 28.839554,25.86262 C 28.599824,25.11318 27.869344,22.7 27.216274,20.5 c -0.65308,-2.2 -1.85778,-5.06614 -2.67712,-6.36921 -0.90312,-1.4363 -1.26318,-3.50185 -0.9144,-5.24572 C 24.284444,5.58661 27.051344,1 28.381474,1 c 1.57971,0 4.6524,6.06135 5.31602,10.48667 0.72188,4.81381 -0.9574,12.86317 -3.045,14.59571 -1.05021,0.87161 -1.48052,0.81944 -1.81294,-0.21976 z"
     id="path3246"
     inkscape:connector-curvature="0" />
</svg>
